<svg width="971" height="800" viewBox="0 0 971 800" fill="none" xmlns="http://www.w3.org/2000/svg">
<path d="M43.704 67H47.736V57.64L51.192 64.432H54.336L57.864 57.208V67H61.896V50.344H57.936L52.968 60.064L47.712 50.344H43.704V67ZM70.5694 67.24C74.5054 67.24 77.1454 64.696 77.1454 60.904C77.1454 57.328 74.7454 55 71.0014 55C67.0414 55 64.4014 57.544 64.4014 61.36C64.4014 64.912 66.8014 67.24 70.5694 67.24ZM70.8334 63.784C69.4414 63.784 68.6254 62.776 68.6254 61.096C68.6254 59.44 69.3934 58.456 70.7134 58.456C72.1054 58.456 72.9214 59.488 72.9214 61.24C72.9214 62.848 72.1534 63.784 70.8334 63.784ZM82.3217 67H86.4737L91.0337 55.24H86.8577L84.4817 63.064L82.3697 55.24H77.8097L82.3217 67ZM98.5701 67.24C100.01 67.24 101.522 66.976 103.01 66.472L102.098 63.664C101.114 64 100.178 64.168 99.2181 64.168C97.4661 64.168 96.4101 63.592 96.0021 62.272H103.058C103.154 61.672 103.226 61.072 103.226 60.448C103.226 57.016 101.258 55 97.8981 55C94.1781 55 91.7061 57.448 91.7061 61.144C91.7061 64.936 94.2981 67.24 98.5701 67.24ZM95.8581 59.992C96.0021 58.696 96.6021 58.048 97.6101 58.048C98.6901 58.048 99.3141 58.744 99.3141 59.992H95.8581Z" fill="black"/>
<rect x="78.5" y="89.5" width="204" height="674" fill="#353535"/>
<g clip-path="url(#clip0)">
<path d="M90.5 312.5H118.229V343.5H90.5C88.567 343.5 87 341.933 87 340V316C87 314.067 88.567 312.5 90.5 312.5Z" fill="url(#paint0_linear)"/>
<g filter="url(#filter0_d)">
<path d="M97.5 321H95.5V335H97.5V321Z" fill="#EEEEEC"/>
<path d="M104.5 322.975H98.4754V327H104.5V322.975Z" fill="#EEEEEC"/>
<path d="M108.5 329H98.5V333H108.5V329Z" fill="#EEEEEC"/>
</g>
<path d="M90.5 312.5H118.229V343.5H90.5C88.567 343.5 87 341.933 87 340V316C87 314.067 88.567 312.5 90.5 312.5Z" stroke="url(#paint1_linear)"/>
<path d="M242.771 312.5H270.5C272.433 312.5 274 314.067 274 316V340C274 341.933 272.433 343.5 270.5 343.5H242.771V312.5Z" fill="url(#paint2_linear)"/>
<g filter="url(#filter1_d)">
<path d="M265.5 333V335H251.5V333H265.5Z" fill="#EEEEEC"/>
<path d="M263.525 326V332.025H259.5V326H263.525Z" fill="#EEEEEC"/>
<path d="M257.5 322V332H253.5V322H257.5Z" fill="#EEEEEC"/>
</g>
<path d="M242.771 312.5H270.5C272.433 312.5 274 314.067 274 316V340C274 341.933 272.433 343.5 270.5 343.5H242.771V312.5Z" stroke="url(#paint3_linear)"/>
<rect x="118.154" y="312.5" width="31.2286" height="31" fill="url(#paint4_linear)"/>
<g filter="url(#filter2_d)">
<path d="M134.5 321H132.5V335H134.5V321Z" fill="#EEEEEC"/>
<path d="M140.5 329H135.5V333H140.5V329Z" fill="#EEEEEC"/>
<path d="M131.5 329H126.5V333H131.5V329Z" fill="#EEEEEC"/>
<path d="M138.5 323H135.5V327H138.5V323Z" fill="#EEEEEC"/>
<path d="M131.5 323H128.5V327H131.5V323Z" fill="#EEEEEC"/>
</g>
<rect x="118.154" y="312.5" width="31.2286" height="31" stroke="url(#paint5_linear)"/>
<rect x="149.309" y="312.5" width="31.2286" height="31" fill="url(#paint6_linear)"/>
<g filter="url(#filter3_d)">
<path d="M169.5 321H171.5V335H169.5V321Z" fill="#EEEEEC"/>
<path d="M162.5 322.975H168.525V327H162.5V322.975Z" fill="#EEEEEC"/>
<path d="M158.5 329H168.5V333H158.5V329Z" fill="#EEEEEC"/>
</g>
<rect x="149.309" y="312.5" width="31.2286" height="31" stroke="url(#paint7_linear)"/>
<rect x="180.463" y="312.5" width="31.2286" height="31" fill="url(#paint8_linear)"/>
<g filter="url(#filter4_d)">
<path d="M189.5 323V321H203.5V323H189.5Z" fill="#EEEEEC"/>
<path d="M191.475 330V323.975H195.5V330H191.475Z" fill="#EEEEEC"/>
<path d="M197.5 334V324H201.5V334H197.5Z" fill="#EEEEEC"/>
</g>
<rect x="180.463" y="312.5" width="31.2286" height="31" stroke="url(#paint9_linear)"/>
<rect x="211.617" y="312.5" width="31.2286" height="31" fill="url(#paint10_linear)"/>
<g filter="url(#filter5_d)">
<path d="M220.5 327V329H234.5V327H220.5Z" fill="#EEEEEC"/>
<path d="M228.5 321V326H232.5V321H228.5Z" fill="#EEEEEC"/>
<path d="M228.5 330V335H232.5V330H228.5Z" fill="#EEEEEC"/>
<path d="M222.5 323V326H226.5V323H222.5Z" fill="#EEEEEC"/>
<path d="M222.5 330V333H226.5V330H222.5Z" fill="#EEEEEC"/>
</g>
<rect x="211.617" y="312.5" width="31.2286" height="31" stroke="url(#paint11_linear)"/>
</g>
<path d="M88.972 363H94.108V361.632H90.52V354.672H88.972V363ZM97.8064 363.12C99.6424 363.12 100.878 361.86 100.878 359.988C100.878 358.2 99.7384 357.048 97.9864 357.048C96.1384 357.048 94.9024 358.296 94.9024 360.18C94.9024 361.956 96.0304 363.12 97.8064 363.12ZM97.9384 361.824C97.0384 361.824 96.4504 361.128 96.4504 360.048C96.4504 358.992 96.9904 358.344 97.8424 358.344C98.7424 358.344 99.3304 359.052 99.3304 360.144C99.3304 361.176 98.7904 361.824 97.9384 361.824ZM104.815 363.12C105.523 363.12 106.183 362.964 106.735 362.664L106.399 361.608C105.979 361.788 105.535 361.884 105.151 361.884C104.071 361.884 103.447 361.212 103.447 360.048C103.447 358.944 104.011 358.344 105.043 358.344C105.475 358.344 105.967 358.44 106.387 358.608L106.711 357.396C106.207 357.168 105.595 357.048 104.995 357.048C103.111 357.048 101.887 358.296 101.887 360.216C101.887 362.04 102.979 363.12 104.815 363.12ZM111.602 363H112.706V359.496C112.706 357.912 111.806 357.048 110.078 357.048C109.25 357.048 108.35 357.252 107.666 357.612L108.026 358.68C108.638 358.44 109.214 358.32 109.754 358.32C110.69 358.32 111.194 358.68 111.194 359.376V359.532C108.674 359.568 107.558 360.144 107.558 361.38C107.558 362.436 108.338 363.12 109.574 363.12C110.318 363.12 110.942 362.88 111.386 362.424L111.602 363ZM111.194 361.5C110.906 361.764 110.522 361.92 110.078 361.92C109.49 361.92 109.094 361.62 109.094 361.176C109.094 360.648 109.694 360.408 111.194 360.384V361.5ZM116.633 363.084C117.029 363.084 117.461 363 117.833 362.88L117.521 361.788C117.353 361.86 117.149 361.896 116.969 361.896C116.417 361.896 116.069 361.572 116.069 361.068V358.392H117.533V357.168H116.069V355.476H114.557V357.168H113.741V358.392H114.557V361.164C114.557 362.34 115.337 363.084 116.633 363.084ZM118.911 363H120.447V357.168H118.911V363ZM119.691 356.088C120.255 356.088 120.627 355.728 120.627 355.152C120.627 354.576 120.255 354.204 119.691 354.204C119.115 354.204 118.743 354.576 118.743 355.152C118.743 355.728 119.115 356.088 119.691 356.088ZM124.724 363.12C126.56 363.12 127.796 361.86 127.796 359.988C127.796 358.2 126.656 357.048 124.904 357.048C123.056 357.048 121.82 358.296 121.82 360.18C121.82 361.956 122.948 363.12 124.724 363.12ZM124.856 361.824C123.956 361.824 123.368 361.128 123.368 360.048C123.368 358.992 123.908 358.344 124.76 358.344C125.66 358.344 126.248 359.052 126.248 360.144C126.248 361.176 125.708 361.824 124.856 361.824ZM133.017 363H134.541V359.4C134.541 357.96 133.725 357.072 132.417 357.072C131.709 357.072 131.049 357.324 130.533 357.804L130.269 357.168H129.165V363H130.701V358.824C131.049 358.548 131.445 358.404 131.889 358.404C132.633 358.404 133.017 358.824 133.017 359.616V363Z" fill="#EEEEEC"/>
<path d="M91 391.5H168.5V419.5H91C89.067 419.5 87.5 417.933 87.5 416V395C87.5 393.067 89.067 391.5 91 391.5Z" fill="#2D2D2D"/>
<path d="M114.746 401.674H115.895V409.127H117.828V410H112.977V409.127H114.934V402.635L113.105 403.355L112.73 402.494L114.746 401.674ZM123.248 402.559C123.061 402.492 122.873 402.459 122.686 402.459C122.498 402.459 122.311 402.49 122.123 402.553C121.936 402.615 121.744 402.727 121.549 402.887C121.354 403.047 121.18 403.246 121.027 403.484C120.879 403.723 120.756 404.035 120.658 404.422C120.564 404.809 120.518 405.242 120.518 405.723C120.518 406.242 120.564 406.711 120.658 407.129C120.756 407.543 120.879 407.879 121.027 408.137C121.18 408.391 121.354 408.604 121.549 408.775C121.748 408.947 121.941 409.068 122.129 409.139C122.32 409.205 122.512 409.238 122.703 409.238C122.855 409.238 123.01 409.215 123.166 409.168C123.322 409.117 123.482 409.041 123.646 408.939C123.814 408.838 123.969 408.695 124.109 408.512C124.254 408.328 124.383 408.113 124.496 407.867C124.609 407.621 124.699 407.318 124.766 406.959C124.832 406.6 124.865 406.203 124.865 405.77C124.865 405.281 124.816 404.842 124.719 404.451C124.625 404.057 124.502 403.738 124.35 403.496C124.201 403.254 124.027 403.053 123.828 402.893C123.629 402.732 123.436 402.621 123.248 402.559ZM122.686 401.562C122.959 401.562 123.23 401.602 123.5 401.68C123.773 401.758 124.055 401.898 124.344 402.102C124.633 402.301 124.885 402.553 125.1 402.857C125.318 403.162 125.498 403.564 125.639 404.064C125.779 404.561 125.85 405.121 125.85 405.746C125.85 406.402 125.779 406.99 125.639 407.51C125.502 408.029 125.324 408.449 125.105 408.77C124.891 409.086 124.639 409.35 124.35 409.561C124.064 409.771 123.787 409.918 123.518 410C123.248 410.078 122.977 410.117 122.703 410.117C122.512 410.117 122.318 410.096 122.123 410.053C121.932 410.014 121.73 409.945 121.52 409.848C121.309 409.746 121.109 409.621 120.922 409.473C120.734 409.32 120.555 409.127 120.383 408.893C120.211 408.658 120.062 408.395 119.938 408.102C119.816 407.805 119.719 407.455 119.645 407.053C119.57 406.646 119.533 406.207 119.533 405.734C119.533 405.285 119.568 404.867 119.639 404.48C119.713 404.094 119.812 403.762 119.938 403.484C120.062 403.203 120.209 402.951 120.377 402.729C120.549 402.506 120.729 402.324 120.916 402.184C121.104 402.039 121.301 401.92 121.508 401.826C121.719 401.729 121.92 401.66 122.111 401.621C122.307 401.582 122.498 401.562 122.686 401.562ZM127.701 402.172C128.506 401.773 129.291 401.574 130.057 401.574C130.783 401.574 131.383 401.762 131.855 402.137C132.332 402.512 132.57 402.982 132.57 403.549C132.57 403.982 132.453 404.369 132.219 404.709C131.988 405.049 131.68 405.293 131.293 405.441C131.859 405.594 132.273 405.846 132.535 406.197C132.801 406.545 132.934 406.961 132.934 407.445C132.934 408 132.793 408.492 132.512 408.922C132.234 409.352 131.852 409.684 131.363 409.918C130.875 410.148 130.322 410.264 129.705 410.264C128.979 410.264 128.254 410.113 127.531 409.812L127.812 409.004C128.625 409.227 129.26 409.338 129.717 409.338C130.326 409.338 130.846 409.182 131.275 408.869C131.705 408.557 131.92 408.154 131.92 407.662C131.92 407.525 131.902 407.393 131.867 407.264C131.832 407.131 131.758 406.984 131.645 406.824C131.531 406.664 131.381 406.525 131.193 406.408C131.01 406.291 130.752 406.193 130.42 406.115C130.088 406.033 129.703 405.992 129.266 405.992V405.137C129.617 405.137 129.93 405.105 130.203 405.043C130.48 404.977 130.701 404.895 130.865 404.797C131.033 404.699 131.17 404.586 131.275 404.457C131.385 404.324 131.459 404.197 131.498 404.076C131.541 403.955 131.562 403.832 131.562 403.707C131.562 403.367 131.414 403.078 131.117 402.84C130.82 402.598 130.426 402.477 129.934 402.477C129.363 402.477 128.727 402.639 128.023 402.963L127.701 402.172ZM135.219 402.184C136.113 401.805 137 401.615 137.879 401.615C138.695 401.615 139.352 401.822 139.848 402.236C140.348 402.65 140.598 403.158 140.598 403.76C140.598 404.045 140.541 404.314 140.428 404.568C140.318 404.818 140.168 405.047 139.977 405.254C139.789 405.457 139.578 405.658 139.344 405.857C139.109 406.057 138.861 406.268 138.6 406.49C138.338 406.713 138.088 406.945 137.85 407.188C137.611 407.426 137.383 407.713 137.164 408.049C136.949 408.385 136.777 408.742 136.648 409.121H140.75V410H135.436V409.455C135.588 408.979 135.781 408.533 136.016 408.119C136.254 407.701 136.498 407.35 136.748 407.064C137.002 406.775 137.264 406.506 137.533 406.256C137.803 406.002 138.057 405.779 138.295 405.588C138.533 405.396 138.748 405.213 138.939 405.037C139.131 404.861 139.281 404.682 139.391 404.498C139.504 404.314 139.561 404.127 139.561 403.936C139.561 403.537 139.377 403.195 139.01 402.91C138.643 402.621 138.203 402.477 137.691 402.477C137.133 402.477 136.404 402.637 135.506 402.957L135.219 402.184Z" fill="#EEEEEC"/>
<path d="M91 391.5H168.5V419.5H91C89.067 419.5 87.5 417.933 87.5 416V395C87.5 393.067 89.067 391.5 91 391.5Z" stroke="#1B1B1B"/>
<path d="M168.5 391.5H247C248.933 391.5 250.5 393.067 250.5 395V416C250.5 417.933 248.933 419.5 247 419.5H168.5V391.5Z" fill="#2D2D2D"/>
<path d="M195.746 401.674H196.895V409.127H198.828V410H193.977V409.127H195.934V402.635L194.105 403.355L193.73 402.494L195.746 401.674ZM203.949 401.674H205.344V407.105H206.797V407.984H205.344V410H204.383V407.984H200.586V407.328L203.949 401.674ZM204.383 402.623L201.734 407.105H204.383V402.623ZM208.268 401.674H214.35V402.301L210.465 410H209.305L213.125 402.611H208.268V401.674ZM216.318 402.172C217.123 401.773 217.908 401.574 218.674 401.574C219.4 401.574 220 401.762 220.473 402.137C220.949 402.512 221.188 402.982 221.188 403.549C221.188 403.982 221.07 404.369 220.836 404.709C220.605 405.049 220.297 405.293 219.91 405.441C220.477 405.594 220.891 405.846 221.152 406.197C221.418 406.545 221.551 406.961 221.551 407.445C221.551 408 221.41 408.492 221.129 408.922C220.852 409.352 220.469 409.684 219.98 409.918C219.492 410.148 218.939 410.264 218.322 410.264C217.596 410.264 216.871 410.113 216.148 409.812L216.43 409.004C217.242 409.227 217.877 409.338 218.334 409.338C218.943 409.338 219.463 409.182 219.893 408.869C220.322 408.557 220.537 408.154 220.537 407.662C220.537 407.525 220.52 407.393 220.484 407.264C220.449 407.131 220.375 406.984 220.262 406.824C220.148 406.664 219.998 406.525 219.811 406.408C219.627 406.291 219.369 406.193 219.037 406.115C218.705 406.033 218.32 405.992 217.883 405.992V405.137C218.234 405.137 218.547 405.105 218.82 405.043C219.098 404.977 219.318 404.895 219.482 404.797C219.65 404.699 219.787 404.586 219.893 404.457C220.002 404.324 220.076 404.197 220.115 404.076C220.158 403.955 220.18 403.832 220.18 403.707C220.18 403.367 220.031 403.078 219.734 402.84C219.438 402.598 219.043 402.477 218.551 402.477C217.98 402.477 217.344 402.639 216.641 402.963L216.318 402.172Z" fill="#EEEEEC"/>
<path d="M168.5 391.5H247C248.933 391.5 250.5 393.067 250.5 395V416C250.5 417.933 248.933 419.5 247 419.5H168.5V391.5Z" stroke="#1B1B1B"/>
<path d="M93.7 383H95.56L92.512 378.608L95.236 374.672H93.448L91.708 377.396L89.98 374.672H88.144L90.868 378.668L87.928 383H89.716L91.672 379.868L93.7 383Z" fill="#EEEEEC"/>
<path d="M175.048 383H176.584V379.736L179.536 374.672H177.82L175.864 378.368L173.812 374.672H171.988L175.048 379.712V383Z" fill="#EEEEEC"/>
<path d="M263 404.006C262.444 404.023 262 404.471 262 405.031V409H270V405.031C270 404.471 269.556 404.023 269 404.006L263 404.006Z" fill="#EEEEEC"/>
<path d="M270.002 400.023C268.354 400.023 267.006 401.389 267.006 403.037V404.5H269.006V403.037C269.006 402.454 269.436 402.023 270.002 402.023C270.568 402.023 271 402.454 271 403.037V404H273V403.037C273 401.389 271.649 400.023 270.002 400.023Z" fill="#EEEEEC"/>
<path d="M234.5 449.5H270C271.933 449.5 273.5 451.067 273.5 453V477C273.5 478.933 271.933 480.5 270 480.5H234.5V449.5Z" fill="url(#paint12_linear)"/>
<g filter="url(#filter6_d)">
<path d="M253 470H255V460H253V470Z" fill="#EEEEEC"/>
<path d="M250 463H251C251.257 463 251.528 462.87 251.719 462.687L254 460.407L256.281 462.687C256.471 462.87 256.743 463 257 463H258V462C258 461.69 257.91 461.448 257.719 461.25L254 457.594L250.281 461.25C250.091 461.448 250 461.69 250 462V463ZM250 467H251C251.257 467 251.528 467.13 251.719 467.312L254 469.594L256.281 467.312C256.471 467.13 256.743 467 257 467H258V468C258 468.31 257.91 468.552 257.719 468.75L254 472.406L250.281 468.75C250.091 468.552 250 468.31 250 468V467Z" fill="#EEEEEC"/>
</g>
<path d="M234.5 449.5H270C271.933 449.5 273.5 451.067 273.5 453V477C273.5 478.933 271.933 480.5 270 480.5H234.5V449.5Z" stroke="url(#paint13_linear)"/>
<path d="M199 449.5H234.5V480.5H199C197.067 480.5 195.5 478.933 195.5 477V453C195.5 451.067 197.067 449.5 199 449.5Z" fill="url(#paint14_linear)"/>
<g filter="url(#filter7_d)">
<path d="M210 464V466H220V464H210Z" fill="#EEEEEC"/>
<path d="M217 461V462C217 462.257 217.13 462.528 217.313 462.719L219.593 465L217.313 467.281C217.13 467.471 217 467.743 217 468V469H218C218.31 469 218.552 468.91 218.75 468.719L222.406 465L218.75 461.281C218.552 461.091 218.31 461 218 461H217ZM213 461V462C213 462.257 212.87 462.528 212.688 462.719L210.406 465L212.688 467.281C212.87 467.471 213 467.743 213 468V469H212C211.69 469 211.448 468.91 211.25 468.719L207.594 465L211.25 461.281C211.448 461.091 211.69 461 212 461H213Z" fill="#EEEEEC"/>
</g>
<path d="M199 449.5H234.5V480.5H199C197.067 480.5 195.5 478.933 195.5 477V453C195.5 451.067 197.067 449.5 199 449.5Z" stroke="url(#paint15_linear)"/>
<rect x="126.5" y="449.5" width="62" height="31" rx="3.5" fill="#2D2D2D"/>
<path d="M154.586 470.12C156.446 470.12 157.598 468.488 157.598 465.776C157.598 463.16 156.482 461.552 154.67 461.552C152.786 461.552 151.622 463.196 151.622 465.896C151.622 468.524 152.75 470.12 154.586 470.12ZM154.658 469.268C153.41 469.268 152.63 467.96 152.63 465.776C152.63 463.676 153.386 462.404 154.598 462.404C155.822 462.404 156.59 463.724 156.59 465.896C156.59 467.996 155.858 469.268 154.658 469.268ZM161.165 464.996C162.197 464.996 162.893 464.3 162.893 463.256C162.893 462.236 162.221 461.552 161.201 461.552C160.169 461.552 159.473 462.248 159.473 463.292C159.473 464.312 160.145 464.996 161.165 464.996ZM161.201 464.192C160.637 464.192 160.253 463.82 160.253 463.256C160.253 462.704 160.613 462.332 161.165 462.332C161.729 462.332 162.113 462.716 162.113 463.292C162.113 463.832 161.753 464.192 161.201 464.192Z" fill="#EEEEEC"/>
<rect x="126.5" y="449.5" width="62" height="31" rx="3.5" stroke="#1B1B1B"/>
<rect x="126.5" y="449.5" width="62" height="31" rx="3.5" fill="#2D2D2D"/>
<path d="M154.586 470.12C156.446 470.12 157.598 468.488 157.598 465.776C157.598 463.16 156.482 461.552 154.67 461.552C152.786 461.552 151.622 463.196 151.622 465.896C151.622 468.524 152.75 470.12 154.586 470.12ZM154.658 469.268C153.41 469.268 152.63 467.96 152.63 465.776C152.63 463.676 153.386 462.404 154.598 462.404C155.822 462.404 156.59 463.724 156.59 465.896C156.59 467.996 155.858 469.268 154.658 469.268ZM161.165 464.996C162.197 464.996 162.893 464.3 162.893 463.256C162.893 462.236 162.221 461.552 161.201 461.552C160.169 461.552 159.473 462.248 159.473 463.292C159.473 464.312 160.145 464.996 161.165 464.996ZM161.201 464.192C160.637 464.192 160.253 463.82 160.253 463.256C160.253 462.704 160.613 462.332 161.165 462.332C161.729 462.332 162.113 462.716 162.113 463.292C162.113 463.832 161.753 464.192 161.201 464.192Z" fill="#EEEEEC"/>
<rect x="126.5" y="449.5" width="62" height="31" rx="3.5" stroke="#1B1B1B"/>
<circle cx="104" cy="465" r="15.5" fill="url(#paint16_linear)" stroke="url(#paint17_linear)"/>
<circle cx="104" cy="456" r="3" fill="#1E1E1E"/>
<path d="M87.972 440H89.52V436.892H90.876C90.888 436.892 90.912 436.892 90.924 436.892L92.7 440H94.56L92.472 436.568C93.444 436.112 94.032 435.212 94.032 434.096C94.032 432.56 92.916 431.672 91.08 431.672H87.972V440ZM89.52 435.584V433.016H90.876C91.848 433.016 92.424 433.508 92.424 434.336C92.424 435.116 91.944 435.584 91.08 435.584H89.52ZM98.1658 440.12C100.002 440.12 101.238 438.86 101.238 436.988C101.238 435.2 100.098 434.048 98.3458 434.048C96.4978 434.048 95.2618 435.296 95.2618 437.18C95.2618 438.956 96.3898 440.12 98.1658 440.12ZM98.2978 438.824C97.3978 438.824 96.8098 438.128 96.8098 437.048C96.8098 435.992 97.3498 435.344 98.2018 435.344C99.1018 435.344 99.6898 436.052 99.6898 437.144C99.6898 438.176 99.1498 438.824 98.2978 438.824ZM104.922 440.084C105.318 440.084 105.75 440 106.122 439.88L105.81 438.788C105.642 438.86 105.438 438.896 105.258 438.896C104.706 438.896 104.358 438.572 104.358 438.068V435.392H105.822V434.168H104.358V432.476H102.846V434.168H102.03V435.392H102.846V438.164C102.846 439.34 103.626 440.084 104.922 440.084ZM110.86 440H111.964V436.496C111.964 434.912 111.064 434.048 109.336 434.048C108.508 434.048 107.608 434.252 106.924 434.612L107.284 435.68C107.896 435.44 108.472 435.32 109.012 435.32C109.948 435.32 110.452 435.68 110.452 436.376V436.532C107.932 436.568 106.816 437.144 106.816 438.38C106.816 439.436 107.596 440.12 108.832 440.12C109.576 440.12 110.2 439.88 110.644 439.424L110.86 440ZM110.452 438.5C110.164 438.764 109.78 438.92 109.336 438.92C108.748 438.92 108.352 438.62 108.352 438.176C108.352 437.648 108.952 437.408 110.452 437.384V438.5ZM115.891 440.084C116.287 440.084 116.719 440 117.091 439.88L116.779 438.788C116.611 438.86 116.407 438.896 116.227 438.896C115.675 438.896 115.327 438.572 115.327 438.068V435.392H116.791V434.168H115.327V432.476H113.815V434.168H112.999V435.392H113.815V438.164C113.815 439.34 114.595 440.084 115.891 440.084ZM118.169 440H119.705V434.168H118.169V440ZM118.949 433.088C119.513 433.088 119.885 432.728 119.885 432.152C119.885 431.576 119.513 431.204 118.949 431.204C118.373 431.204 118.001 431.576 118.001 432.152C118.001 432.728 118.373 433.088 118.949 433.088ZM123.982 440.12C125.818 440.12 127.054 438.86 127.054 436.988C127.054 435.2 125.914 434.048 124.162 434.048C122.314 434.048 121.078 435.296 121.078 437.18C121.078 438.956 122.206 440.12 123.982 440.12ZM124.114 438.824C123.214 438.824 122.626 438.128 122.626 437.048C122.626 435.992 123.166 435.344 124.018 435.344C124.918 435.344 125.506 436.052 125.506 437.144C125.506 438.176 124.966 438.824 124.114 438.824ZM132.275 440H133.799V436.4C133.799 434.96 132.983 434.072 131.675 434.072C130.967 434.072 130.307 434.324 129.791 434.804L129.527 434.168H128.423V440H129.959V435.824C130.307 435.548 130.703 435.404 131.147 435.404C131.891 435.404 132.275 435.824 132.275 436.616V440Z" fill="#EEEEEC"/>
<path d="M87.972 499H89.52V495.892H90.876C90.888 495.892 90.912 495.892 90.924 495.892L92.7 499H94.56L92.472 495.568C93.444 495.112 94.032 494.212 94.032 493.096C94.032 491.56 92.916 490.672 91.08 490.672H87.972V499ZM89.52 494.584V492.016H90.876C91.848 492.016 92.424 492.508 92.424 493.336C92.424 494.116 91.944 494.584 91.08 494.584H89.52ZM99.2818 499H100.386V495.496C100.386 493.912 99.4858 493.048 97.7578 493.048C96.9298 493.048 96.0298 493.252 95.3458 493.612L95.7058 494.68C96.3178 494.44 96.8938 494.32 97.4338 494.32C98.3698 494.32 98.8738 494.68 98.8738 495.376V495.532C96.3538 495.568 95.2378 496.144 95.2378 497.38C95.2378 498.436 96.0178 499.12 97.2538 499.12C97.9978 499.12 98.6218 498.88 99.0658 498.424L99.2818 499ZM98.8738 497.5C98.5858 497.764 98.2018 497.92 97.7578 497.92C97.1698 497.92 96.7738 497.62 96.7738 497.176C96.7738 496.648 97.3738 496.408 98.8738 496.384V497.5ZM101.997 499H103.533V493.168H101.997V499ZM102.777 492.088C103.341 492.088 103.713 491.728 103.713 491.152C103.713 490.576 103.341 490.204 102.777 490.204C102.201 490.204 101.829 490.576 101.829 491.152C101.829 491.728 102.201 492.088 102.777 492.088ZM107.186 499.12C108.782 499.12 109.73 498.412 109.73 497.248C109.73 495.064 106.43 495.796 106.43 494.812C106.43 494.464 106.85 494.248 107.558 494.248C108.038 494.248 108.614 494.344 109.154 494.5L109.478 493.348C108.938 493.156 108.254 493.048 107.594 493.048C105.926 493.048 104.954 493.72 104.954 494.92C104.954 497.092 108.206 496.264 108.206 497.32C108.206 497.692 107.81 497.92 107.162 497.92C106.598 497.92 105.818 497.764 105.206 497.524L104.87 498.664C105.53 498.952 106.382 499.12 107.186 499.12ZM113.865 499.12C114.549 499.12 115.293 498.976 115.929 498.712L115.581 497.656C115.113 497.848 114.597 497.956 114.105 497.956C113.061 497.956 112.413 497.464 112.233 496.504H116.013C116.049 496.264 116.085 495.904 116.085 495.64C116.085 494.044 115.113 493.048 113.553 493.048C111.813 493.048 110.649 494.284 110.649 496.096C110.649 497.968 111.873 499.12 113.865 499.12ZM112.197 495.568C112.281 494.692 112.713 494.224 113.445 494.224C114.201 494.224 114.645 494.716 114.645 495.568H112.197ZM116.758 500.38H118.162L120.814 490.132H119.302L116.758 500.38ZM121.956 499H127.092V497.632H123.504V490.672H121.956V499ZM130.791 499.12C132.627 499.12 133.863 497.86 133.863 495.988C133.863 494.2 132.723 493.048 130.971 493.048C129.123 493.048 127.887 494.296 127.887 496.18C127.887 497.956 129.015 499.12 130.791 499.12ZM130.923 497.824C130.023 497.824 129.435 497.128 129.435 496.048C129.435 494.992 129.975 494.344 130.827 494.344C131.727 494.344 132.315 495.052 132.315 496.144C132.315 497.176 131.775 497.824 130.923 497.824ZM136.443 499H137.907L139.215 494.884L140.631 499H142.155L144.099 493.168H142.599L141.423 497.32L140.091 493.192H138.567L137.259 497.44L136.107 493.168H134.427L136.443 499ZM147.884 499.12C148.568 499.12 149.312 498.976 149.948 498.712L149.6 497.656C149.132 497.848 148.616 497.956 148.124 497.956C147.08 497.956 146.432 497.464 146.252 496.504H150.032C150.068 496.264 150.104 495.904 150.104 495.64C150.104 494.044 149.132 493.048 147.572 493.048C145.832 493.048 144.668 494.284 144.668 496.096C144.668 497.968 145.892 499.12 147.884 499.12ZM146.216 495.568C146.3 494.692 146.732 494.224 147.464 494.224C148.22 494.224 148.664 494.716 148.664 495.568H146.216ZM151.473 499H153.009V495.208C153.357 494.788 153.849 494.548 154.389 494.548C154.629 494.548 154.917 494.596 155.133 494.68L155.481 493.276C155.241 493.168 154.929 493.108 154.617 493.108C153.921 493.108 153.285 493.444 152.841 494.032L152.697 493.168H151.473V499Z" fill="#EEEEEC"/>
<path d="M88.104 519H91.008C92.928 519 94.056 518.1 94.056 516.576C94.056 515.532 93.468 514.74 92.508 514.416C93.072 514.092 93.432 513.408 93.432 512.676C93.432 511.404 92.412 510.672 90.636 510.672H88.104V519ZM89.1 515.076H91.296C92.352 515.076 93.036 515.748 93.036 516.78C93.036 517.74 92.46 518.148 91.128 518.148H89.1V515.076ZM91.488 514.248C91.464 514.248 91.428 514.248 91.404 514.248H89.1V511.524H90.516C91.788 511.524 92.412 511.992 92.412 512.94C92.412 513.528 92.148 513.912 91.488 514.248ZM99.1306 519H99.8026V515.244C99.8026 513.864 98.9866 513.096 97.4746 513.096C96.7186 513.096 95.9026 513.3 95.2786 513.648L95.5186 514.356C96.1186 514.092 96.7186 513.96 97.2826 513.96C98.3146 513.96 98.8426 514.392 98.8426 515.244V515.628C96.2506 515.652 95.1226 516.192 95.1226 517.428C95.1226 518.46 95.8906 519.12 97.0786 519.12C97.8106 519.12 98.4346 518.88 98.9026 518.46L99.1306 519ZM98.8426 517.704C98.4826 518.064 97.9546 518.28 97.3546 518.28C96.5866 518.28 96.0826 517.896 96.0826 517.32C96.0826 516.6 96.8986 516.3 98.8426 516.288V517.704ZM103.963 519.12C104.659 519.12 105.379 518.952 105.859 518.664L105.643 517.968C105.163 518.196 104.635 518.328 104.191 518.328C102.991 518.328 102.307 517.488 102.307 516.084C102.307 514.692 102.979 513.936 104.179 513.936C104.635 513.936 105.151 514.044 105.631 514.26L105.859 513.48C105.331 513.228 104.767 513.096 104.191 513.096C102.475 513.096 101.323 514.368 101.323 516.276C101.323 518.064 102.307 519.12 103.963 519.12ZM110.957 519H112.229L109.457 515.832L111.965 513.216H110.825L108.257 515.892V510.132H107.297V519H108.257V515.94L110.957 519Z" fill="#EEEEEC"/>
<path d="M243.866 519H244.862V515.136H248.69V514.272H244.862V511.536H249.038V510.672H243.866V519ZM250.519 519H251.479V514.872C251.851 514.368 252.439 514.068 253.087 514.068C253.315 514.068 253.531 514.104 253.723 514.176L253.963 513.288C253.711 513.204 253.459 513.156 253.195 513.156C252.499 513.156 251.851 513.492 251.419 514.056L251.311 513.216H250.519V519ZM257.371 519.12C259.075 519.12 260.227 517.884 260.227 516.036C260.227 514.248 259.159 513.096 257.515 513.096C255.811 513.096 254.671 514.32 254.671 516.168C254.671 517.956 255.727 519.12 257.371 519.12ZM257.503 518.28C256.387 518.28 255.631 517.38 255.631 516.048C255.631 514.764 256.315 513.936 257.383 513.936C258.499 513.936 259.267 514.848 259.267 516.168C259.267 517.44 258.571 518.28 257.503 518.28ZM265.799 519H266.759V515.208C266.759 513.924 265.907 513.096 264.611 513.096C263.951 513.096 263.291 513.324 262.739 513.732L262.523 513.216H261.851V519H262.811V514.476C263.255 514.128 263.783 513.936 264.347 513.936C265.283 513.936 265.799 514.464 265.799 515.4V519ZM270.64 519.06C271.036 519.06 271.432 518.964 271.708 518.844L271.492 518.148C271.312 518.232 271.048 518.28 270.844 518.28C270.244 518.28 269.848 517.896 269.848 517.32V514.02H271.432V513.216H269.848V511.524H268.888V513.216H268.108V514.02H268.888V517.452C268.888 518.412 269.584 519.06 270.64 519.06Z" fill="#EEEEEC"/>
<path d="M87 531C87 529.895 87.8954 529 89 529H272C273.105 529 274 529.895 274 531V531C274 532.105 273.105 533 272 533H89C87.8954 533 87 532.105 87 531V531Z" fill="#282828"/>
<line x1="89.5" y1="536" x2="89.5" y2="541" stroke="#9B9B9A"/>
<line x1="133.5" y1="536" x2="133.5" y2="541" stroke="#9B9B9A"/>
<line x1="228.5" y1="536" x2="228.5" y2="541" stroke="#9B9B9A"/>
<line x1="180.5" y1="536" x2="180.5" y2="541" stroke="#9B9B9A"/>
<line x1="271.5" y1="536" x2="271.5" y2="541" stroke="#9B9B9A"/>
<circle cx="180" cy="531" r="9.5" fill="url(#paint18_linear)" stroke="black"/>
<rect x="78.5" y="89.5" width="204" height="674" stroke="#0D0D0D"/>
<g filter="url(#filter8_b)">
<rect width="6" height="671.996" transform="translate(277 90.0015)" fill="#353535"/>
<rect x="279" y="406.499" width="2" height="39" rx="1" fill="#EEEEEC"/>
</g>
<rect x="362" y="293" width="172" height="172" fill="#F46E8F"/>
<rect x="361.5" y="292.5" width="173" height="173" stroke="black" stroke-opacity="0.5"/>
<rect x="411.5" y="358.5" width="72" height="41" rx="4.5" fill="#353535" fill-opacity="0.75"/>
<path d="M424.276 377H431.476V376.004L428.932 368.672H426.952L424.276 376.004V377ZM425.992 375.644L427.828 370.004L429.664 375.644H425.992ZM437.458 377H439.318L436.27 372.608L438.994 368.672H437.206L435.466 371.396L433.738 368.672H431.902L434.626 372.668L431.686 377H433.474L435.43 373.868L437.458 377ZM424.276 391H431.476V390.004L428.932 382.672H426.952L424.276 390.004V391ZM425.992 389.644L427.828 384.004L429.664 389.644H425.992ZM434.806 391H436.342V387.736L439.294 382.672H437.578L435.622 386.368L433.57 382.672H431.746L434.806 387.712V391Z" fill="#EEEEEC"/>
<path d="M467.289 377.12C469.149 377.12 470.301 375.488 470.301 372.776C470.301 370.16 469.185 368.552 467.373 368.552C465.489 368.552 464.325 370.196 464.325 372.896C464.325 375.524 465.453 377.12 467.289 377.12ZM467.361 376.268C466.113 376.268 465.333 374.96 465.333 372.776C465.333 370.676 466.089 369.404 467.301 369.404C468.525 369.404 469.293 370.724 469.293 372.896C469.293 374.996 468.561 376.268 467.361 376.268ZM446.808 388.36H450.288V387.556H446.808V388.36ZM451.642 391H456.922V390.136H453.094C455.71 387.652 456.598 386.308 456.598 384.904C456.598 383.44 455.602 382.552 454.066 382.552C453.07 382.552 452.122 382.912 451.51 383.5L451.786 384.196C452.422 383.68 453.214 383.428 453.862 383.428C454.93 383.428 455.59 384.064 455.59 385.06C455.59 386.272 454.618 387.532 451.642 390.34V391ZM460.358 391.12C462.206 391.12 463.454 390.064 463.454 388.432C463.454 386.872 462.326 385.888 460.454 385.888C460.094 385.888 459.722 385.924 459.374 385.996L459.494 383.524H463.058V382.672H458.594L458.39 386.932C458.93 386.812 459.626 386.728 460.154 386.728C461.57 386.728 462.434 387.388 462.434 388.516C462.434 389.596 461.642 390.244 460.418 390.244C459.698 390.244 458.906 390.04 458.282 389.704L457.994 390.496C458.738 390.892 459.518 391.12 460.358 391.12ZM467.64 391.12C469.248 391.12 470.388 389.992 470.388 388.372C470.388 386.872 469.404 385.876 467.964 385.876C466.944 385.876 466.092 386.368 465.66 387.184C465.66 387.112 465.66 387.028 465.66 386.944C465.66 384.604 466.512 383.428 468.276 383.428C468.852 383.428 469.464 383.56 469.992 383.836L470.28 383.056C469.62 382.708 468.996 382.552 468.324 382.552C466.02 382.552 464.688 384.244 464.688 387.076C464.688 389.632 465.768 391.12 467.64 391.12ZM465.732 388.012C466.056 387.184 466.776 386.704 467.688 386.704C468.768 386.704 469.44 387.4 469.44 388.492C469.44 389.548 468.804 390.256 467.76 390.256C466.644 390.256 465.948 389.488 465.732 388.012Z" fill="#EEEEEC"/>
<rect x="411.5" y="358.5" width="72" height="41" rx="4.5" stroke="#0D0D0D"/>
<line x1="419.5" y1="465" x2="419.5" y2="293" stroke="black" stroke-opacity="0.25"/>
<line x1="478.5" y1="465" x2="478.5" y2="293" stroke="black" stroke-opacity="0.25"/>
<line x1="362" y1="351.499" x2="534" y2="351.499" stroke="black" stroke-opacity="0.25"/>
<line x1="362" y1="410.499" x2="534" y2="410.499" stroke="black" stroke-opacity="0.25"/>
<rect x="358.5" y="289.5" width="7" height="7" fill="white" stroke="url(#paint19_linear)"/>
<rect x="358.5" y="461.5" width="7" height="7" fill="white" stroke="url(#paint20_linear)"/>
<rect x="368.5" y="452.5" width="7" height="7" rx="3.5" fill="white" stroke="url(#paint21_linear)"/>
<rect x="520.5" y="451.5" width="7" height="7" rx="3.5" fill="white" stroke="url(#paint22_linear)"/>
<rect x="368.5" y="298.5" width="7" height="7" rx="3.5" fill="white" stroke="url(#paint23_linear)"/>
<rect x="520.5" y="298.5" width="7" height="7" rx="3.5" fill="white" stroke="url(#paint24_linear)"/>
<rect x="530.5" y="461.5" width="7" height="7" fill="white" stroke="url(#paint25_linear)"/>
<rect x="530.5" y="289.5" width="7" height="7" fill="white" stroke="url(#paint26_linear)"/>
<path d="M504.277 373.584L503.296 372.929L503.508 374.09L505.925 387.301L506.07 388.09L506.715 387.613L509.56 385.508L511.311 387.761C511.648 388.227 512.101 388.472 512.579 388.511C513.046 388.549 513.493 388.386 513.836 388.12C514.179 387.853 514.447 387.46 514.525 386.999C514.606 386.526 514.48 386.026 514.112 385.584L512.417 383.407L514.984 381.533L515.563 381.111L514.967 380.714L504.277 373.584Z" fill="black" stroke="white"/>
<g clip-path="url(#clip1)">
<rect x="645.582" y="402.895" width="172" height="138.556" transform="rotate(33.4969 645.582 402.895)" fill="#F46E8F"/>
<rect x="645.441" y="402.202" width="173" height="139.556" transform="rotate(33.4969 645.441 402.202)" stroke="black" stroke-opacity="0.5"/>
<line x1="617.064" y1="550.172" x2="693.532" y2="434.629" stroke="black" stroke-opacity="0.25"/>
<line x1="666.265" y1="582.734" x2="742.733" y2="467.19" stroke="black" stroke-opacity="0.25"/>
<line x1="619.628" y1="442.111" x2="763.061" y2="537.037" stroke="black" stroke-opacity="0.25"/>
<line x1="593.398" y1="481.745" x2="736.831" y2="576.671" stroke="black" stroke-opacity="0.25"/>
<rect x="644.165" y="398.693" width="7" height="7" transform="rotate(33.4969 644.165 398.693)" fill="white" stroke="url(#paint27_linear)"/>
<rect x="568.556" y="512.939" width="7" height="7" transform="rotate(33.4969 568.556 512.939)" fill="white" stroke="url(#paint28_linear)"/>
<rect x="581.862" y="510.953" width="7" height="7" rx="3.5" transform="rotate(33.4969 581.862 510.953)" fill="white" stroke="url(#paint29_linear)"/>
<rect x="709.169" y="594.007" width="7" height="7" rx="3.5" transform="rotate(33.4969 709.169 594.007)" fill="white" stroke="url(#paint30_linear)"/>
<rect x="647.537" y="411.717" width="7" height="7" rx="3.5" transform="rotate(33.4969 647.537 411.717)" fill="white" stroke="url(#paint31_linear)"/>
<rect x="774.293" y="495.605" width="7" height="7" rx="3.5" transform="rotate(33.4969 774.293 495.605)" fill="white" stroke="url(#paint32_linear)"/>
<rect x="711.99" y="607.865" width="7" height="7" transform="rotate(33.4969 711.99 607.865)" fill="white" stroke="url(#paint33_linear)"/>
<rect x="787.599" y="493.618" width="7" height="7" transform="rotate(33.4969 787.599 493.618)" fill="white" stroke="url(#paint34_linear)"/>
<rect x="640.5" y="492.5" width="80" height="27" rx="4.5" fill="#353535" fill-opacity="0.75"/>
<path d="M653.276 511H660.476V510.004L657.932 502.672H655.952L653.276 510.004V511ZM654.992 509.644L656.828 504.004L658.664 509.644H654.992ZM663.578 511.12C664.418 511.12 665.078 510.688 665.534 510.028C665.786 510.736 666.218 511.084 666.902 511.084C667.286 511.084 667.622 510.976 667.934 510.844L667.646 509.812C667.514 509.872 667.334 509.908 667.19 509.908C666.842 509.908 666.602 509.62 666.458 508.888L666.434 508.792L667.706 505.168H666.278L665.966 506.74C665.594 505.732 664.946 505.048 663.806 505.048C662.186 505.048 661.262 506.308 661.262 508.18C661.262 510.028 662.21 511.12 663.578 511.12ZM665.246 508.768C664.97 509.332 664.526 509.848 663.95 509.848C663.218 509.848 662.822 509.14 662.822 508.06C662.822 507.028 663.194 506.308 663.902 506.308C664.562 506.308 664.946 507.088 665.114 508.036L665.246 508.768Z" fill="#EEEEEC"/>
<path d="M674.82 508.36H678.3V507.556H674.82V508.36ZM682.198 511.132C684.022 511.132 685.282 510.172 685.282 508.732C685.282 507.652 684.55 506.86 683.398 506.668C684.286 506.404 684.85 505.672 684.85 504.736C684.85 503.416 683.782 502.564 682.234 502.564C681.37 502.564 680.41 502.84 679.702 503.248L679.93 503.992C680.674 503.62 681.454 503.428 682.066 503.428C683.134 503.428 683.914 503.98 683.914 504.832C683.914 505.744 683.026 506.356 681.802 506.356H681.154V507.208H682.018C683.41 507.208 684.286 507.808 684.286 508.792C684.286 509.728 683.47 510.244 682.234 510.244C681.502 510.244 680.53 510.064 679.75 509.68L679.534 510.484C680.338 510.892 681.322 511.132 682.198 511.132ZM688.936 511.132C690.76 511.132 692.02 510.172 692.02 508.732C692.02 507.652 691.288 506.86 690.136 506.668C691.024 506.404 691.588 505.672 691.588 504.736C691.588 503.416 690.52 502.564 688.972 502.564C688.108 502.564 687.148 502.84 686.44 503.248L686.668 503.992C687.412 503.62 688.192 503.428 688.804 503.428C689.872 503.428 690.652 503.98 690.652 504.832C690.652 505.744 689.764 506.356 688.54 506.356H687.892V507.208H688.756C690.148 507.208 691.024 507.808 691.024 508.792C691.024 509.728 690.208 510.244 688.972 510.244C688.24 510.244 687.268 510.064 686.488 509.68L686.272 510.484C687.076 510.892 688.06 511.132 688.936 511.132ZM694.114 511.12C694.57 511.12 694.882 510.796 694.882 510.352C694.882 509.908 694.57 509.584 694.114 509.584C693.658 509.584 693.346 509.908 693.346 510.352C693.346 510.796 693.658 511.12 694.114 511.12ZM698.576 511.12C700.424 511.12 701.672 510.064 701.672 508.432C701.672 506.872 700.544 505.888 698.672 505.888C698.312 505.888 697.94 505.924 697.592 505.996L697.712 503.524H701.276V502.672H696.812L696.608 506.932C697.148 506.812 697.844 506.728 698.372 506.728C699.788 506.728 700.652 507.388 700.652 508.516C700.652 509.596 699.86 510.244 698.636 510.244C697.916 510.244 697.124 510.04 696.5 509.704L696.212 510.496C696.956 510.892 697.736 511.12 698.576 511.12ZM705.091 505.996C706.123 505.996 706.819 505.3 706.819 504.256C706.819 503.236 706.147 502.552 705.127 502.552C704.095 502.552 703.399 503.248 703.399 504.292C703.399 505.312 704.071 505.996 705.091 505.996ZM705.127 505.192C704.563 505.192 704.179 504.82 704.179 504.256C704.179 503.704 704.539 503.332 705.091 503.332C705.655 503.332 706.039 503.716 706.039 504.292C706.039 504.832 705.679 505.192 705.127 505.192Z" fill="#EEEEEC"/>
<rect x="640.5" y="492.5" width="80" height="27" rx="4.5" stroke="#0D0D0D"/>
</g>
<rect x="582" y="290.044" width="172" height="44.9111" fill="#F46E8F"/>
<rect x="581.5" y="289.544" width="173" height="45.9111" stroke="black" stroke-opacity="0.5"/>
<line x1="639.5" y1="334.956" x2="639.5" y2="290.044" stroke="black" stroke-opacity="0.25"/>
<line x1="698.5" y1="334.956" x2="698.5" y2="290.044" stroke="black" stroke-opacity="0.25"/>
<line x1="582" y1="304.95" x2="754" y2="304.95" stroke="black" stroke-opacity="0.25"/>
<line x1="582" y1="320.355" x2="754" y2="320.355" stroke="black" stroke-opacity="0.25"/>
<rect x="578.5" y="289.5" width="7" height="7" fill="white" stroke="url(#paint35_linear)"/>
<rect x="578.5" y="328.5" width="7" height="7" fill="white" stroke="url(#paint36_linear)"/>
<rect x="588.5" y="319.5" width="7" height="7" rx="3.5" fill="white" stroke="url(#paint37_linear)"/>
<rect x="740.5" y="318.5" width="7" height="7" rx="3.5" fill="white" stroke="url(#paint38_linear)"/>
<rect x="588.5" y="298.5" width="7" height="7" rx="3.5" fill="white" stroke="url(#paint39_linear)"/>
<rect x="740.5" y="298.5" width="7" height="7" rx="3.5" fill="white" stroke="url(#paint40_linear)"/>
<rect x="750.5" y="328.5" width="7" height="7" fill="white" stroke="url(#paint41_linear)"/>
<rect x="750.5" y="289.5" width="7" height="7" fill="white" stroke="url(#paint42_linear)"/>
<path d="M663.277 294.584L662.296 293.929L662.508 295.09L664.925 308.301L665.07 309.09L665.715 308.613L668.56 306.508L670.311 308.761C670.648 309.227 671.101 309.472 671.579 309.511C672.046 309.549 672.493 309.386 672.836 309.12C673.179 308.853 673.447 308.46 673.525 307.999C673.606 307.526 673.48 307.026 673.112 306.584L671.417 304.407L673.984 302.533L674.563 302.111L673.967 301.714L663.277 294.584Z" fill="black" stroke="white"/>
<path d="M804.277 493.584L803.296 492.929L803.508 494.09L805.925 507.301L806.07 508.09L806.715 507.613L809.56 505.508L811.311 507.761C811.648 508.227 812.101 508.472 812.579 508.511C813.046 508.549 813.493 508.386 813.836 508.12C814.179 507.853 814.447 507.46 814.525 506.999C814.606 506.526 814.48 506.026 814.112 505.584L812.417 503.407L814.984 501.533L815.563 501.111L814.967 500.714L804.277 493.584Z" fill="black" stroke="white"/>
<rect x="631.5" y="233.5" width="72" height="41" rx="4.5" fill="#353535" fill-opacity="0.75"/>
<path d="M644.276 252H651.476V251.004L648.932 243.672H646.952L644.276 251.004V252ZM645.992 250.644L647.828 245.004L649.664 250.644H645.992ZM657.458 252H659.318L656.27 247.608L658.994 243.672H657.206L655.466 246.396L653.738 243.672H651.902L654.626 247.668L651.686 252H653.474L655.43 248.868L657.458 252ZM644.276 266H651.476V265.004L648.932 257.672H646.952L644.276 265.004V266ZM645.992 264.644L647.828 259.004L649.664 264.644H645.992ZM654.806 266H656.342V262.736L659.294 257.672H657.578L655.622 261.368L653.57 257.672H651.746L654.806 262.712V266Z" fill="#EEEEEC"/>
<path d="M687.289 252.12C689.149 252.12 690.301 250.488 690.301 247.776C690.301 245.16 689.185 243.552 687.373 243.552C685.489 243.552 684.325 245.196 684.325 247.896C684.325 250.524 685.453 252.12 687.289 252.12ZM687.361 251.268C686.113 251.268 685.333 249.96 685.333 247.776C685.333 245.676 686.089 244.404 687.301 244.404C688.525 244.404 689.293 245.724 689.293 247.896C689.293 249.996 688.561 251.268 687.361 251.268ZM666.808 263.36H670.288V262.556H666.808V263.36ZM671.642 266H676.922V265.136H673.094C675.71 262.652 676.598 261.308 676.598 259.904C676.598 258.44 675.602 257.552 674.066 257.552C673.07 257.552 672.122 257.912 671.51 258.5L671.786 259.196C672.422 258.68 673.214 258.428 673.862 258.428C674.93 258.428 675.59 259.064 675.59 260.06C675.59 261.272 674.618 262.532 671.642 265.34V266ZM680.358 266.12C682.206 266.12 683.454 265.064 683.454 263.432C683.454 261.872 682.326 260.888 680.454 260.888C680.094 260.888 679.722 260.924 679.374 260.996L679.494 258.524H683.058V257.672H678.594L678.39 261.932C678.93 261.812 679.626 261.728 680.154 261.728C681.57 261.728 682.434 262.388 682.434 263.516C682.434 264.596 681.642 265.244 680.418 265.244C679.698 265.244 678.906 265.04 678.282 264.704L677.994 265.496C678.738 265.892 679.518 266.12 680.358 266.12ZM687.64 266.12C689.248 266.12 690.388 264.992 690.388 263.372C690.388 261.872 689.404 260.876 687.964 260.876C686.944 260.876 686.092 261.368 685.66 262.184C685.66 262.112 685.66 262.028 685.66 261.944C685.66 259.604 686.512 258.428 688.276 258.428C688.852 258.428 689.464 258.56 689.992 258.836L690.28 258.056C689.62 257.708 688.996 257.552 688.324 257.552C686.02 257.552 684.688 259.244 684.688 262.076C684.688 264.632 685.768 266.12 687.64 266.12ZM685.732 263.012C686.056 262.184 686.776 261.704 687.688 261.704C688.768 261.704 689.44 262.4 689.44 263.492C689.44 264.548 688.804 265.256 687.76 265.256C686.644 265.256 685.948 264.488 685.732 263.012Z" fill="#EEEEEC"/>
<rect x="631.5" y="233.5" width="72" height="41" rx="4.5" stroke="#0D0D0D"/>
<path d="M42.5 89.5H78.5V763.5H49C45.4101 763.5 42.5 760.59 42.5 757V89.5Z" fill="#3D3D3D"/>
<g clip-path="url(#clip2)">
<path d="M56.498 172C55.9453 172 55.5 172.029 55.5 172.029V174.012L53.5 174.014V175.002C53.5 175.555 53.9453 176 54.498 176H55.5V182.998V183.002C55.5 183.555 55.9453 184 56.498 184L63.5 183.992V185.002C63.5 185.555 63.9453 186 64.498 186H64.502C65.0547 186 65.5 185.971 65.5 185.971V183.988L67.5 183.986V182.998C67.5 182.445 67.0547 182 66.502 182H65.5V175.002V174.998C65.5 174.445 65.0547 174 64.502 174H64.498L57.5 174.008V172.998C57.5 172.445 57.0547 172 56.502 172H56.498ZM57.5 176H63.5V182H57.5V176Z" fill="#EEEEEC"/>
<path d="M68.5 155L72.5 151V155H68.5Z" fill="#EEEEEC"/>
<path d="M56.0303 149H52.9697C52.7103 149 52.5 149.23 52.5 149.514V150.486C52.5 150.77 52.7103 151 52.9697 151H56.0303C56.2897 151 56.5 150.77 56.5 150.486V149.514C56.5 149.23 56.2897 149 56.0303 149Z" fill="#EEEEEC"/>
<path d="M59.3333 135C58.8717 135 58.5 135.382 58.5 135.857V139.286V140.143C58.5 140.618 58.8717 141 59.3333 141H65.1667H67.6667C68.1283 141 68.5 140.618 68.5 140.143V136.714V135.857C68.5 135.382 68.1283 135 67.6667 135H61.8333H59.3333Z" fill="#EEEEEC"/>
<path d="M58.5 143L60.5 145L57.5 148L58.5 149L59.5 148L61.5 146L63.5 148V143H60.5H58.5Z" fill="#EEEEEC"/>
<rect x="42.5" y="89" width="36" height="36" fill="#EEEEEC"/>
<path d="M55.472 100.069L57.889 113.279L61.127 110.884L63.183 113.53C64.213 114.965 66.331 113.319 65.195 111.967L63.178 109.375L66.161 107.198L55.472 100.069Z" fill="#3D3D3D"/>
</g>
<line x1="43" y1="196.5" x2="78" y2="196.5" stroke="#282828"/>
<path d="M62.1559 212.638L59.3939 214.071L58.9509 217.275L56.8009 214.956L53.7651 215.504L55.1984 212.638L53.7651 209.771L56.8009 210.319L58.9509 208L59.3939 211.205L62.1559 212.638Z" fill="#EEEEEC"/>
<path d="M61.4614 214.962C61.2625 214.962 61.0681 215.021 60.9031 215.132C60.7381 215.243 60.61 215.401 60.5351 215.585C60.4603 215.77 60.4421 215.972 60.4829 216.167C60.5237 216.362 60.6216 216.54 60.7642 216.678L66.7486 222.663C66.8407 222.759 66.9511 222.835 67.0732 222.888C67.1953 222.941 67.3268 222.969 67.4598 222.97C67.5929 222.972 67.7248 222.946 67.848 222.896C67.9712 222.846 68.0831 222.772 68.1772 222.677C68.2713 222.583 68.3457 222.471 68.3959 222.348C68.4462 222.225 68.4714 222.093 68.4701 221.96C68.4687 221.827 68.4408 221.696 68.388 221.573C68.3352 221.451 68.2586 221.341 68.1626 221.249L62.1802 215.264C62.0868 215.168 61.975 215.092 61.8516 215.04C61.7281 214.988 61.5954 214.961 61.4614 214.962V214.962Z" fill="#EEEEEC"/>
<path d="M68.5 227L72.5 223V227H68.5Z" fill="#EEEEEC"/>
<path d="M53.5 246H52.5V247H53.5V246Z" fill="#EEEEEC"/>
<path d="M65.5 246H64.5V247H65.5V246Z" fill="#EEEEEC"/>
<path d="M67.5 246H66.5V247H67.5V246Z" fill="#EEEEEC"/>
<path d="M53.5 248H52.5V249H53.5V248Z" fill="#EEEEEC"/>
<path d="M63.5 246H62.5V247H63.5V246Z" fill="#EEEEEC"/>
<path d="M55.5 246H54.5V247H55.5V246Z" fill="#EEEEEC"/>
<path d="M57.5 246H56.5V247H57.5V246Z" fill="#EEEEEC"/>
<path d="M59.5 246H58.5V247H59.5V246Z" fill="#EEEEEC"/>
<path d="M61.5 246H60.5V247H61.5V246Z" fill="#EEEEEC"/>
<path d="M53.5 250H52.5V251H53.5V250Z" fill="#EEEEEC"/>
<path d="M53.5 252H52.5V253H53.5V252Z" fill="#EEEEEC"/>
<path d="M55.5 256H54.5V257H55.5V256Z" fill="#EEEEEC"/>
<path d="M57.5 256H56.5V257H57.5V256Z" fill="#EEEEEC"/>
<path d="M59.5 256H58.5V257H59.5V256Z" fill="#EEEEEC"/>
<path d="M61.5 256H60.5V257H61.5V256Z" fill="#EEEEEC"/>
<path d="M63.5 256H62.5V257H63.5V256Z" fill="#EEEEEC"/>
<path d="M65.5 256H64.5V257H65.5V256Z" fill="#EEEEEC"/>
<path d="M67.5 256H66.5V257H67.5V256Z" fill="#EEEEEC"/>
<path d="M67.5 254H66.5V255H67.5V254Z" fill="#EEEEEC"/>
<path d="M67.5 252H66.5V253H67.5V252Z" fill="#EEEEEC"/>
<path d="M67.5 250H66.5V251H67.5V250Z" fill="#EEEEEC"/>
<path d="M67.5 248H66.5V249H67.5V248Z" fill="#EEEEEC"/>
<path d="M64.5 249H55.5V254H64.5V249Z" fill="#EEEEEC"/>
<path d="M53.5 254H52.5V255H53.5V254Z" fill="#EEEEEC"/>
<path d="M53.5 256H52.5V257H53.5V256Z" fill="#EEEEEC"/>
<path d="M68.5 263L72.5 259V263H68.5Z" fill="#EEEEEC"/>
<line x1="43" y1="268.5" x2="78" y2="268.5" stroke="#282828"/>
<path d="M60 390.156L57.5312 391.969C57.5402 391.957 57.5014 391.951 57.25 392C53.25 392.777 53 393.657 53 395V400C53 400.554 53.446 401 54 401C54.554 401 55 400.554 55 400V393.812L56.2812 395.688L57.3438 397.25L60.125 401.406C60.5086 401.974 61.1986 402.176 61.6562 401.844L66.625 398.25C67.0826 397.918 67.1337 397.193 66.75 396.625L64 392.562V394C64 395.105 63.1046 396 62 396C60.8954 396 60 395.105 60 394V390.156Z" fill="#EEEEEC"/>
<path d="M63 388C63 387.448 62.5529 387 62.0013 387C61.4497 387 61.0025 387.448 61.0025 388V394C61.0025 394.552 61.4497 395 62.0013 395C62.5529 395 63 394.552 63 394V388Z" fill="#EEEEEC"/>
<path d="M62.657 352C62.464 352.012 62.277 352.123 62.091 352.305L53.5 360.737L55.82 363.014H61.443L67.258 357.306C67.3321 357.236 67.3913 357.152 67.4321 357.058C67.4728 356.965 67.4943 356.864 67.4951 356.762C67.4959 356.661 67.4762 356.559 67.437 356.465C67.3978 356.371 67.34 356.286 67.267 356.215L63.269 352.29C63.052 352.077 62.851 351.989 62.657 352ZM58.694 357.628L61.46 360.201C61.674 360.324 61.66 360.778 61.494 360.944L60.5 362H56.25L54.973 360.744L58.037 357.665C58.225 357.477 58.538 357.473 58.693 357.627L58.694 357.628ZM56.5 364H67.5V365H56.5V364Z" fill="#EEEEEC"/>
<path d="M63.5 315.978L61.5 317.978H63C63.1326 317.978 63.2598 318.031 63.3535 318.125L65.3379 320.109C65.4317 320.203 65.4844 320.33 65.4844 320.463V322.052L67.5586 319.978V318.037L65.5 315.978H63.5ZM60.5 318.978L53.5 325.978V329.978H57.5586L64.4844 323.052V320.67L62.793 318.978H60.5Z" fill="#EEEEEC"/>
<path d="M61.5 289.978C61.5 292.187 59.7091 293.988 57.5 293.978H53.5V289.978C53.5 287.769 55.2909 285.978 57.5 285.978C59.7091 285.978 61.5 287.769 61.5 289.978Z" fill="#EEEEEC"/>
<path d="M66.9082 279.027C66.5186 279.038 66.1488 279.201 65.877 279.48L60.0742 285.252C60.9819 285.727 61.72 286.465 62.1953 287.373L67.998 281.601C68.9774 280.647 68.2747 278.988 66.9082 279.027V279.027Z" fill="#EEEEEC"/>
<line x1="42.5" y1="412.5" x2="78.5" y2="412.5" stroke="#282828"/>
<path d="M57.9572 460.294C57.5666 459.903 56.9335 459.903 56.543 460.294L54.0432 462.793C53.6527 463.184 53.6527 463.817 54.0432 464.208L56.543 466.707C56.9335 467.098 57.5666 467.098 57.9572 466.707L60.4569 464.208C60.8474 463.817 60.8474 463.184 60.4569 462.793L57.9572 460.294Z" fill="#EEEEEC"/>
<path d="M59.7501 474C61.4069 474 62.7501 472.657 62.7501 471C62.7501 469.343 61.4069 468 59.7501 468C58.0932 468 56.7501 469.343 56.7501 471C56.7501 472.657 58.0932 474 59.7501 474Z" fill="#EEEEEC"/>
<path d="M64.6954 461.002C64.3588 461.02 64.0541 461.207 63.8848 461.498L61.5645 465.498C61.1781 466.164 61.6578 466.999 62.4278 467H67.0723C67.8423 466.999 68.322 466.164 67.9356 465.498L65.6153 461.498C65.4263 461.173 65.0709 460.981 64.6954 461.002Z" fill="#EEEEEC"/>
<path d="M60.25 511V509H65.25V511H60.25Z" fill="#EEEEEC"/>
<path d="M61.25 496V498C61.25 498 59.25 500 59.25 504C60.25 505.646 60.25 506.464 60.25 507V508H65.25V507C65.25 506.486 65.25 505.58 66.25 504C66.25 500 64.25 498 64.25 498V496H63.25V500.969C63.8684 501.174 64.3125 501.75 64.3125 502.438C64.3125 503.296 63.6086 504 62.75 504C61.8914 504 61.1875 503.296 61.1875 502.438C61.1875 501.757 61.641 501.179 62.25 500.969V496H61.25Z" fill="#EEEEEC"/>
<path d="M54.25 496V499H55.25V501.727C54.9202 501.839 54.6335 502.053 54.4303 502.339C54.2271 502.624 54.1176 502.967 54.1172 503.318C54.1176 503.67 54.2271 504.013 54.4303 504.298C54.6335 504.584 54.9202 504.798 55.25 504.91V508H54.25V511H57.25V508H56.25V504.934C56.596 504.832 56.8999 504.619 57.1162 504.328C57.3324 504.037 57.4493 503.682 57.4492 503.318C57.4488 502.955 57.3318 502.601 57.1156 502.31C56.8994 502.019 56.5957 501.807 56.25 501.705V499H57.25V496H54.25Z" fill="#EEEEEC"/>
<path d="M58.75 424L53.75 438H56.75C58.2361 434 56.7721 438 58.2582 434H63.2418L64.75 438H67.75L62.75 424H58.75ZM60.75 427L62.7721 432H58.7721L60.75 427Z" fill="#EEEEEC"/>
<g clip-path="url(#clip3)">
<path d="M54 743.006C54.5304 743.006 55.0391 743.217 55.4142 743.592C55.7893 743.967 56 744.476 56 745.006C56 745.536 55.7893 746.045 55.4142 746.42C55.0391 746.795 54.5304 747.006 54 747.006C53.4696 747.006 52.9609 746.795 52.5858 746.42C52.2107 746.045 52 745.536 52 745.006C52 744.476 52.2107 743.967 52.5858 743.592C52.9609 743.217 53.4696 743.006 54 743.006V743.006ZM60 743.006C60.5304 743.006 61.0391 743.217 61.4142 743.592C61.7893 743.967 62 744.476 62 745.006C62 745.536 61.7893 746.045 61.4142 746.42C61.0391 746.795 60.5304 747.006 60 747.006C59.4696 747.006 58.9609 746.795 58.5858 746.42C58.2107 746.045 58 745.536 58 745.006C58 744.476 58.2107 743.967 58.5858 743.592C58.9609 743.217 59.4696 743.006 60 743.006V743.006ZM66 743.006C66.5304 743.006 67.0391 743.217 67.4142 743.592C67.7893 743.967 68 744.476 68 745.006C68 745.536 67.7893 746.045 67.4142 746.42C67.0391 746.795 66.5304 747.006 66 747.006C65.4696 747.006 64.9609 746.795 64.5858 746.42C64.2107 746.045 64 745.536 64 745.006C64 744.476 64.2107 743.967 64.5858 743.592C64.9609 743.217 65.4696 743.006 66 743.006Z" fill="#EEEEEC"/>
<path d="M57.5 707C56.573 707.004 55.685 707.374 55.0295 708.029C54.374 708.685 54.0039 709.573 54 710.5C54 712.421 55.58 714 57.5 714H58V712H57.5C56.66 712 56 711.34 56 710.5C56 709.66 56.66 709 57.5 709H64V707H57.5Z" fill="#EEEEEC"/>
<path d="M61 704V705C61 705.257 61.13 705.528 61.313 705.719L63.593 708L61.313 710.281C61.13 710.471 61 710.743 61 711V712H62C62.31 712 62.552 711.91 62.75 711.719L66.406 708L62.75 704.281C62.552 704.091 62.31 704 62 704H61Z" fill="#EEEEEC"/>
<path d="M62.5 671C63.427 671.004 64.315 671.374 64.9705 672.029C65.626 672.685 65.9961 673.573 66 674.5C66 676.421 64.42 678 62.5 678H62V676H62.5C63.34 676 64 675.34 64 674.5C64 673.66 63.34 673 62.5 673H56V671H62.5Z" fill="#EEEEEC"/>
<path d="M59 668V669C59 669.257 58.87 669.528 58.687 669.719L56.407 672L58.687 674.281C58.87 674.471 59 674.743 59 675V676H58C57.69 676 57.448 675.91 57.25 675.719L53.594 672L57.25 668.281C57.448 668.091 57.69 668 58 668H59Z" fill="#EEEEEC"/>
<line x1="43" y1="654.5" x2="79" y2="654.5" stroke="#282828"/>
</g>
<path d="M42.5 89.5H78.5V763.5H49C45.4101 763.5 42.5 760.59 42.5 757V89.5Z" stroke="#282828"/>
<defs>
<filter id="filter0_d" x="94.5" y="319" width="16" height="17" filterUnits="userSpaceOnUse" color-interpolation-filters="sRGB">
<feFlood flood-opacity="0" result="BackgroundImageFix"/>
<feColorMatrix in="SourceAlpha" type="matrix" values="0 0 0 0 0 0 0 0 0 0 0 0 0 0 0 0 0 0 127 0"/>
<feOffset dy="-1"/>
<feColorMatrix type="matrix" values="0 0 0 0 0.027451 0 0 0 0 0.027451 0 0 0 0 0.027451 0 0 0 1 0"/>
<feBlend mode="normal" in2="BackgroundImageFix" result="effect1_dropShadow"/>
<feBlend mode="normal" in="SourceGraphic" in2="effect1_dropShadow" result="shape"/>
</filter>
<filter id="filter1_d" x="250.5" y="319" width="16" height="17" filterUnits="userSpaceOnUse" color-interpolation-filters="sRGB">
<feFlood flood-opacity="0" result="BackgroundImageFix"/>
<feColorMatrix in="SourceAlpha" type="matrix" values="0 0 0 0 0 0 0 0 0 0 0 0 0 0 0 0 0 0 127 0"/>
<feOffset dy="-1"/>
<feColorMatrix type="matrix" values="0 0 0 0 0.027451 0 0 0 0 0.027451 0 0 0 0 0.027451 0 0 0 1 0"/>
<feBlend mode="normal" in2="BackgroundImageFix" result="effect1_dropShadow"/>
<feBlend mode="normal" in="SourceGraphic" in2="effect1_dropShadow" result="shape"/>
</filter>
<filter id="filter2_d" x="125.5" y="319" width="16" height="17" filterUnits="userSpaceOnUse" color-interpolation-filters="sRGB">
<feFlood flood-opacity="0" result="BackgroundImageFix"/>
<feColorMatrix in="SourceAlpha" type="matrix" values="0 0 0 0 0 0 0 0 0 0 0 0 0 0 0 0 0 0 127 0"/>
<feOffset dy="-1"/>
<feColorMatrix type="matrix" values="0 0 0 0 0.027451 0 0 0 0 0.027451 0 0 0 0 0.027451 0 0 0 1 0"/>
<feBlend mode="normal" in2="BackgroundImageFix" result="effect1_dropShadow"/>
<feBlend mode="normal" in="SourceGraphic" in2="effect1_dropShadow" result="shape"/>
</filter>
<filter id="filter3_d" x="156.5" y="319" width="16" height="17" filterUnits="userSpaceOnUse" color-interpolation-filters="sRGB">
<feFlood flood-opacity="0" result="BackgroundImageFix"/>
<feColorMatrix in="SourceAlpha" type="matrix" values="0 0 0 0 0 0 0 0 0 0 0 0 0 0 0 0 0 0 127 0"/>
<feOffset dy="-1"/>
<feColorMatrix type="matrix" values="0 0 0 0 0.027451 0 0 0 0 0.027451 0 0 0 0 0.027451 0 0 0 1 0"/>
<feBlend mode="normal" in2="BackgroundImageFix" result="effect1_dropShadow"/>
<feBlend mode="normal" in="SourceGraphic" in2="effect1_dropShadow" result="shape"/>
</filter>
<filter id="filter4_d" x="188.5" y="319" width="16" height="17" filterUnits="userSpaceOnUse" color-interpolation-filters="sRGB">
<feFlood flood-opacity="0" result="BackgroundImageFix"/>
<feColorMatrix in="SourceAlpha" type="matrix" values="0 0 0 0 0 0 0 0 0 0 0 0 0 0 0 0 0 0 127 0"/>
<feOffset dy="-1"/>
<feColorMatrix type="matrix" values="0 0 0 0 0.027451 0 0 0 0 0.027451 0 0 0 0 0.027451 0 0 0 1 0"/>
<feBlend mode="normal" in2="BackgroundImageFix" result="effect1_dropShadow"/>
<feBlend mode="normal" in="SourceGraphic" in2="effect1_dropShadow" result="shape"/>
</filter>
<filter id="filter5_d" x="219.5" y="319" width="16" height="17" filterUnits="userSpaceOnUse" color-interpolation-filters="sRGB">
<feFlood flood-opacity="0" result="BackgroundImageFix"/>
<feColorMatrix in="SourceAlpha" type="matrix" values="0 0 0 0 0 0 0 0 0 0 0 0 0 0 0 0 0 0 127 0"/>
<feOffset dy="-1"/>
<feColorMatrix type="matrix" values="0 0 0 0 0.027451 0 0 0 0 0.027451 0 0 0 0 0.027451 0 0 0 1 0"/>
<feBlend mode="normal" in2="BackgroundImageFix" result="effect1_dropShadow"/>
<feBlend mode="normal" in="SourceGraphic" in2="effect1_dropShadow" result="shape"/>
</filter>
<filter id="filter6_d" x="246" y="456" width="16" height="17" filterUnits="userSpaceOnUse" color-interpolation-filters="sRGB">
<feFlood flood-opacity="0" result="BackgroundImageFix"/>
<feColorMatrix in="SourceAlpha" type="matrix" values="0 0 0 0 0 0 0 0 0 0 0 0 0 0 0 0 0 0 127 0"/>
<feOffset dy="-1"/>
<feColorMatrix type="matrix" values="0 0 0 0 0.027451 0 0 0 0 0.027451 0 0 0 0 0.027451 0 0 0 1 0"/>
<feBlend mode="normal" in2="BackgroundImageFix" result="effect1_dropShadow"/>
<feBlend mode="normal" in="SourceGraphic" in2="effect1_dropShadow" result="shape"/>
</filter>
<filter id="filter7_d" x="207" y="456" width="16" height="17" filterUnits="userSpaceOnUse" color-interpolation-filters="sRGB">
<feFlood flood-opacity="0" result="BackgroundImageFix"/>
<feColorMatrix in="SourceAlpha" type="matrix" values="0 0 0 0 0 0 0 0 0 0 0 0 0 0 0 0 0 0 127 0"/>
<feOffset dy="-1"/>
<feColorMatrix type="matrix" values="0 0 0 0 0.027451 0 0 0 0 0.027451 0 0 0 0 0.027451 0 0 0 1 0"/>
<feBlend mode="normal" in2="BackgroundImageFix" result="effect1_dropShadow"/>
<feBlend mode="normal" in="SourceGraphic" in2="effect1_dropShadow" result="shape"/>
</filter>
<filter id="filter8_b" x="265" y="78.0015" width="30" height="695.996" filterUnits="userSpaceOnUse" color-interpolation-filters="sRGB">
<feFlood flood-opacity="0" result="BackgroundImageFix"/>
<feGaussianBlur in="BackgroundImage" stdDeviation="6"/>
<feComposite in2="SourceAlpha" operator="in" result="effect1_backgroundBlur"/>
<feBlend mode="normal" in="SourceGraphic" in2="effect1_backgroundBlur" result="shape"/>
</filter>
<linearGradient id="paint0_linear" x1="102.614" y1="312" x2="102.614" y2="344" gradientUnits="userSpaceOnUse">
<stop stop-color="#3A3A3A"/>
<stop offset="1" stop-color="#373737"/>
</linearGradient>
<linearGradient id="paint1_linear" x1="102.614" y1="312" x2="102.614" y2="344" gradientUnits="userSpaceOnUse">
<stop offset="0.953125" stop-color="#141414"/>
<stop offset="1" stop-color="#070707"/>
</linearGradient>
<linearGradient id="paint2_linear" x1="258.386" y1="312" x2="258.386" y2="344" gradientUnits="userSpaceOnUse">
<stop stop-color="#3A3A3A"/>
<stop offset="1" stop-color="#373737"/>
</linearGradient>
<linearGradient id="paint3_linear" x1="258.386" y1="312" x2="258.386" y2="344" gradientUnits="userSpaceOnUse">
<stop offset="0.953125" stop-color="#141414"/>
<stop offset="1" stop-color="#070707"/>
</linearGradient>
<linearGradient id="paint4_linear" x1="133.769" y1="312" x2="133.769" y2="344" gradientUnits="userSpaceOnUse">
<stop stop-color="#3A3A3A"/>
<stop offset="1" stop-color="#373737"/>
</linearGradient>
<linearGradient id="paint5_linear" x1="133.769" y1="312" x2="133.769" y2="344" gradientUnits="userSpaceOnUse">
<stop offset="0.953125" stop-color="#141414"/>
<stop offset="1" stop-color="#070707"/>
</linearGradient>
<linearGradient id="paint6_linear" x1="164.923" y1="312" x2="164.923" y2="344" gradientUnits="userSpaceOnUse">
<stop stop-color="#3A3A3A"/>
<stop offset="1" stop-color="#373737"/>
</linearGradient>
<linearGradient id="paint7_linear" x1="164.923" y1="312" x2="164.923" y2="344" gradientUnits="userSpaceOnUse">
<stop offset="0.953125" stop-color="#141414"/>
<stop offset="1" stop-color="#070707"/>
</linearGradient>
<linearGradient id="paint8_linear" x1="196.077" y1="312" x2="196.077" y2="344" gradientUnits="userSpaceOnUse">
<stop stop-color="#3A3A3A"/>
<stop offset="1" stop-color="#373737"/>
</linearGradient>
<linearGradient id="paint9_linear" x1="196.077" y1="312" x2="196.077" y2="344" gradientUnits="userSpaceOnUse">
<stop offset="0.953125" stop-color="#141414"/>
<stop offset="1" stop-color="#070707"/>
</linearGradient>
<linearGradient id="paint10_linear" x1="227.231" y1="312" x2="227.231" y2="344" gradientUnits="userSpaceOnUse">
<stop stop-color="#3A3A3A"/>
<stop offset="1" stop-color="#373737"/>
</linearGradient>
<linearGradient id="paint11_linear" x1="227.231" y1="312" x2="227.231" y2="344" gradientUnits="userSpaceOnUse">
<stop offset="0.953125" stop-color="#141414"/>
<stop offset="1" stop-color="#070707"/>
</linearGradient>
<linearGradient id="paint12_linear" x1="254" y1="449" x2="254" y2="481" gradientUnits="userSpaceOnUse">
<stop stop-color="#3A3A3A"/>
<stop offset="1" stop-color="#373737"/>
</linearGradient>
<linearGradient id="paint13_linear" x1="254" y1="449" x2="254" y2="481" gradientUnits="userSpaceOnUse">
<stop offset="0.953125" stop-color="#141414"/>
<stop offset="1" stop-color="#070707"/>
</linearGradient>
<linearGradient id="paint14_linear" x1="215" y1="449" x2="215" y2="481" gradientUnits="userSpaceOnUse">
<stop stop-color="#3A3A3A"/>
<stop offset="1" stop-color="#373737"/>
</linearGradient>
<linearGradient id="paint15_linear" x1="215" y1="449" x2="215" y2="481" gradientUnits="userSpaceOnUse">
<stop offset="0.953125" stop-color="#141414"/>
<stop offset="1" stop-color="#070707"/>
</linearGradient>
<linearGradient id="paint16_linear" x1="104" y1="449" x2="104" y2="481" gradientUnits="userSpaceOnUse">
<stop stop-color="#353535"/>
<stop offset="1" stop-color="#323232"/>
</linearGradient>
<linearGradient id="paint17_linear" x1="104" y1="449" x2="104" y2="481" gradientUnits="userSpaceOnUse">
<stop offset="0.953125" stop-color="#1B1B1B"/>
<stop offset="1" stop-color="#070707"/>
</linearGradient>
<linearGradient id="paint18_linear" x1="180" y1="521" x2="180" y2="541" gradientUnits="userSpaceOnUse">
<stop stop-color="#353535"/>
<stop offset="1" stop-color="#323232"/>
</linearGradient>
<linearGradient id="paint19_linear" x1="362" y1="289" x2="362" y2="297" gradientUnits="userSpaceOnUse">
<stop stop-color="#3A3A3A"/>
<stop offset="1" stop-color="#373737"/>
</linearGradient>
<linearGradient id="paint20_linear" x1="362" y1="461" x2="362" y2="469" gradientUnits="userSpaceOnUse">
<stop stop-color="#3A3A3A"/>
<stop offset="1" stop-color="#373737"/>
</linearGradient>
<linearGradient id="paint21_linear" x1="372" y1="452" x2="372" y2="460" gradientUnits="userSpaceOnUse">
<stop stop-color="#3A3A3A"/>
<stop offset="1" stop-color="#373737"/>
</linearGradient>
<linearGradient id="paint22_linear" x1="524" y1="451" x2="524" y2="459" gradientUnits="userSpaceOnUse">
<stop stop-color="#3A3A3A"/>
<stop offset="1" stop-color="#373737"/>
</linearGradient>
<linearGradient id="paint23_linear" x1="372" y1="298" x2="372" y2="306" gradientUnits="userSpaceOnUse">
<stop stop-color="#3A3A3A"/>
<stop offset="1" stop-color="#373737"/>
</linearGradient>
<linearGradient id="paint24_linear" x1="524" y1="298" x2="524" y2="306" gradientUnits="userSpaceOnUse">
<stop stop-color="#3A3A3A"/>
<stop offset="1" stop-color="#373737"/>
</linearGradient>
<linearGradient id="paint25_linear" x1="534" y1="461" x2="534" y2="469" gradientUnits="userSpaceOnUse">
<stop stop-color="#3A3A3A"/>
<stop offset="1" stop-color="#373737"/>
</linearGradient>
<linearGradient id="paint26_linear" x1="534" y1="289" x2="534" y2="297" gradientUnits="userSpaceOnUse">
<stop stop-color="#3A3A3A"/>
<stop offset="1" stop-color="#373737"/>
</linearGradient>
<linearGradient id="paint27_linear" x1="648.024" y1="398" x2="648.024" y2="406" gradientUnits="userSpaceOnUse">
<stop stop-color="#3A3A3A"/>
<stop offset="1" stop-color="#373737"/>
</linearGradient>
<linearGradient id="paint28_linear" x1="572.415" y1="512.246" x2="572.415" y2="520.246" gradientUnits="userSpaceOnUse">
<stop stop-color="#3A3A3A"/>
<stop offset="1" stop-color="#373737"/>
</linearGradient>
<linearGradient id="paint29_linear" x1="585.721" y1="510.26" x2="585.721" y2="518.26" gradientUnits="userSpaceOnUse">
<stop stop-color="#3A3A3A"/>
<stop offset="1" stop-color="#373737"/>
</linearGradient>
<linearGradient id="paint30_linear" x1="713.028" y1="593.314" x2="713.028" y2="601.314" gradientUnits="userSpaceOnUse">
<stop stop-color="#3A3A3A"/>
<stop offset="1" stop-color="#373737"/>
</linearGradient>
<linearGradient id="paint31_linear" x1="651.396" y1="411.024" x2="651.396" y2="419.024" gradientUnits="userSpaceOnUse">
<stop stop-color="#3A3A3A"/>
<stop offset="1" stop-color="#373737"/>
</linearGradient>
<linearGradient id="paint32_linear" x1="778.152" y1="494.912" x2="778.152" y2="502.912" gradientUnits="userSpaceOnUse">
<stop stop-color="#3A3A3A"/>
<stop offset="1" stop-color="#373737"/>
</linearGradient>
<linearGradient id="paint33_linear" x1="715.849" y1="607.172" x2="715.849" y2="615.172" gradientUnits="userSpaceOnUse">
<stop stop-color="#3A3A3A"/>
<stop offset="1" stop-color="#373737"/>
</linearGradient>
<linearGradient id="paint34_linear" x1="791.458" y1="492.925" x2="791.458" y2="500.925" gradientUnits="userSpaceOnUse">
<stop stop-color="#3A3A3A"/>
<stop offset="1" stop-color="#373737"/>
</linearGradient>
<linearGradient id="paint35_linear" x1="582" y1="289" x2="582" y2="297" gradientUnits="userSpaceOnUse">
<stop stop-color="#3A3A3A"/>
<stop offset="1" stop-color="#373737"/>
</linearGradient>
<linearGradient id="paint36_linear" x1="582" y1="328" x2="582" y2="336" gradientUnits="userSpaceOnUse">
<stop stop-color="#3A3A3A"/>
<stop offset="1" stop-color="#373737"/>
</linearGradient>
<linearGradient id="paint37_linear" x1="592" y1="319" x2="592" y2="327" gradientUnits="userSpaceOnUse">
<stop stop-color="#3A3A3A"/>
<stop offset="1" stop-color="#373737"/>
</linearGradient>
<linearGradient id="paint38_linear" x1="744" y1="318" x2="744" y2="326" gradientUnits="userSpaceOnUse">
<stop stop-color="#3A3A3A"/>
<stop offset="1" stop-color="#373737"/>
</linearGradient>
<linearGradient id="paint39_linear" x1="592" y1="298" x2="592" y2="306" gradientUnits="userSpaceOnUse">
<stop stop-color="#3A3A3A"/>
<stop offset="1" stop-color="#373737"/>
</linearGradient>
<linearGradient id="paint40_linear" x1="744" y1="298" x2="744" y2="306" gradientUnits="userSpaceOnUse">
<stop stop-color="#3A3A3A"/>
<stop offset="1" stop-color="#373737"/>
</linearGradient>
<linearGradient id="paint41_linear" x1="754" y1="328" x2="754" y2="336" gradientUnits="userSpaceOnUse">
<stop stop-color="#3A3A3A"/>
<stop offset="1" stop-color="#373737"/>
</linearGradient>
<linearGradient id="paint42_linear" x1="754" y1="289" x2="754" y2="297" gradientUnits="userSpaceOnUse">
<stop stop-color="#3A3A3A"/>
<stop offset="1" stop-color="#373737"/>
</linearGradient>
<clipPath id="clip0">
<rect width="188" height="32" fill="white" transform="translate(86.5 312)"/>
</clipPath>
<clipPath id="clip1">
<rect width="180" height="145" fill="white" transform="translate(644.024 398) rotate(33.4969)"/>
</clipPath>
<clipPath id="clip2">
<rect width="36" height="108" fill="white" transform="translate(42.5 89)"/>
</clipPath>
<clipPath id="clip3">
<rect width="35" height="242" fill="white" transform="translate(43 521)"/>
</clipPath>
</defs>
</svg>
