<svg width="339" height="735" viewBox="0 0 339 735" fill="none" xmlns="http://www.w3.org/2000/svg">
<rect x="88.5" y="37.5" width="204" height="675" fill="#353535"/>
<path d="M97.972 217H99.544V213.532H103.144V212.176H99.544V210.028H103.54V208.672H97.972V217ZM107.357 217.12C109.193 217.12 110.429 215.86 110.429 213.988C110.429 212.2 109.289 211.048 107.537 211.048C105.689 211.048 104.453 212.296 104.453 214.18C104.453 215.956 105.581 217.12 107.357 217.12ZM107.489 215.824C106.589 215.824 106.001 215.128 106.001 214.048C106.001 212.992 106.541 212.344 107.393 212.344C108.293 212.344 108.881 213.052 108.881 214.144C108.881 215.176 108.341 215.824 107.489 215.824ZM115.65 217H117.174V213.4C117.174 211.96 116.358 211.072 115.05 211.072C114.342 211.072 113.682 211.324 113.166 211.804L112.902 211.168H111.798V217H113.334V212.824C113.682 212.548 114.078 212.404 114.522 212.404C115.266 212.404 115.65 212.824 115.65 213.616V217ZM121.11 217.084C121.506 217.084 121.938 217 122.31 216.88L121.998 215.788C121.83 215.86 121.626 215.896 121.446 215.896C120.894 215.896 120.546 215.572 120.546 215.068V212.392H122.01V211.168H120.546V209.476H119.034V211.168H118.218V212.392H119.034V215.164C119.034 216.34 119.814 217.084 121.11 217.084Z" fill="#EEEEEC"/>
<rect x="97.5" y="225.5" width="186" height="31" rx="3.5" fill="url(#paint0_linear)"/>
<path d="M110.104 246H111.1V237.672H110.104V246ZM117.143 246H118.103V242.208C118.103 240.924 117.251 240.096 115.955 240.096C115.295 240.096 114.635 240.324 114.083 240.732L113.867 240.216H113.195V246H114.155V241.476C114.599 241.128 115.127 240.936 115.691 240.936C116.627 240.936 117.143 241.464 117.143 242.4V246ZM121.984 246.06C122.38 246.06 122.776 245.964 123.052 245.844L122.836 245.148C122.656 245.232 122.392 245.28 122.188 245.28C121.588 245.28 121.192 244.896 121.192 244.32V241.02H122.776V240.216H121.192V238.524H120.232V240.216H119.452V241.02H120.232V244.452C120.232 245.412 120.928 246.06 121.984 246.06ZM126.944 246.12C127.604 246.12 128.324 245.964 128.84 245.688L128.624 244.992C128.18 245.208 127.616 245.34 127.112 245.34C125.888 245.34 125.12 244.608 124.976 243.372H129.008C129.032 243.192 129.056 242.772 129.056 242.544C129.056 241.092 128.096 240.096 126.668 240.096C125.06 240.096 123.968 241.356 123.968 243.132C123.968 244.98 125.108 246.12 126.944 246.12ZM124.964 242.652C125.048 241.524 125.624 240.912 126.596 240.912C127.58 240.912 128.156 241.548 128.156 242.652H124.964ZM130.68 246H131.64V241.872C132.012 241.368 132.6 241.068 133.248 241.068C133.476 241.068 133.692 241.104 133.884 241.176L134.124 240.288C133.872 240.204 133.62 240.156 133.356 240.156C132.66 240.156 132.012 240.492 131.58 241.056L131.472 240.216H130.68V246Z" fill="#EEEEEC"/>
<path d="M272 238L266.5 244L261 238H272Z" fill="#EEEEEC"/>
<rect x="97.5" y="225.5" width="186" height="31" rx="3.5" stroke="url(#paint1_linear)"/>
<rect x="220.5" y="263.5" width="63" height="31" rx="3.5" fill="#2D2D2D"/>
<path d="M245.84 284.06H246.788V275.672H246.212L243.248 277.208L243.608 277.892L245.84 276.824V284.06ZM248.79 284H254.07V283.136H250.242C252.858 280.652 253.746 279.308 253.746 277.904C253.746 276.44 252.75 275.552 251.214 275.552C250.218 275.552 249.27 275.912 248.658 276.5L248.934 277.196C249.57 276.68 250.362 276.428 251.01 276.428C252.078 276.428 252.738 277.064 252.738 278.06C252.738 279.272 251.766 280.532 248.79 283.34V284ZM256.006 284H257.026L260.482 276.152V275.672H254.902V276.536H259.318L256.006 284Z" fill="#EEEEEC"/>
<rect x="220.5" y="263.5" width="63" height="31" rx="3.5" stroke="#1B1B1B"/>
<rect x="97.5" y="263.5" width="114" height="31" rx="3.5" fill="url(#paint2_linear)"/>
<path d="M110.104 284H111.1V280.628H112.744C112.828 280.628 112.912 280.628 113.008 280.616L114.94 284H116.128L114.016 280.4C115.024 280.004 115.648 279.116 115.648 278C115.648 276.536 114.568 275.672 112.864 275.672H110.104V284ZM111.1 279.788V276.536H112.744C113.932 276.536 114.628 277.148 114.628 278.18C114.628 279.2 114.004 279.788 112.864 279.788H111.1ZM120.041 284.12C120.701 284.12 121.421 283.964 121.937 283.688L121.721 282.992C121.277 283.208 120.713 283.34 120.209 283.34C118.985 283.34 118.217 282.608 118.073 281.372H122.105C122.129 281.192 122.153 280.772 122.153 280.544C122.153 279.092 121.193 278.096 119.765 278.096C118.157 278.096 117.065 279.356 117.065 281.132C117.065 282.98 118.205 284.12 120.041 284.12ZM118.061 280.652C118.145 279.524 118.721 278.912 119.693 278.912C120.677 278.912 121.253 279.548 121.253 280.652H118.061ZM125.865 286.724C127.533 286.724 128.625 285.572 128.625 283.832V278.216H127.953L127.773 278.708C127.353 278.312 126.777 278.096 126.105 278.096C124.497 278.096 123.405 279.308 123.405 281.144C123.405 282.932 124.437 284.12 125.985 284.12C126.657 284.12 127.233 283.892 127.665 283.484V283.976C127.665 285.26 127.089 285.896 125.937 285.896C125.421 285.896 124.797 285.764 124.257 285.536L124.053 286.268C124.653 286.568 125.265 286.724 125.865 286.724ZM127.665 279.656V282.62C127.341 283.04 126.849 283.28 126.261 283.28C125.109 283.28 124.365 282.38 124.365 281.048C124.365 279.776 125.037 278.936 126.153 278.936C126.801 278.936 127.317 279.2 127.665 279.656ZM132.613 284.12C133.249 284.12 133.897 283.892 134.437 283.496L134.653 284H135.325V278.216H134.365V282.752C133.945 283.088 133.417 283.28 132.901 283.28C132.001 283.28 131.485 282.752 131.485 281.816V278.216H130.525V282.008C130.525 283.292 131.377 284.12 132.613 284.12ZM138.62 284.072C138.932 284.072 139.304 284 139.532 283.88L139.316 283.208C139.172 283.268 139.04 283.304 138.896 283.304C138.488 283.304 138.272 283.028 138.272 282.584V275.132H137.312V282.704C137.312 283.532 137.828 284.072 138.62 284.072ZM144.228 284H144.9V280.244C144.9 278.864 144.084 278.096 142.572 278.096C141.816 278.096 141 278.3 140.376 278.648L140.616 279.356C141.216 279.092 141.816 278.96 142.38 278.96C143.412 278.96 143.94 279.392 143.94 280.244V280.628C141.348 280.652 140.22 281.192 140.22 282.428C140.22 283.46 140.988 284.12 142.176 284.12C142.908 284.12 143.532 283.88 144 283.46L144.228 284ZM143.94 282.704C143.58 283.064 143.052 283.28 142.452 283.28C141.684 283.28 141.18 282.896 141.18 282.32C141.18 281.6 141.996 281.3 143.94 281.288V282.704ZM146.793 284H147.753V279.872C148.125 279.368 148.713 279.068 149.361 279.068C149.589 279.068 149.805 279.104 149.997 279.176L150.237 278.288C149.985 278.204 149.733 278.156 149.469 278.156C148.773 278.156 148.125 278.492 147.693 279.056L147.585 278.216H146.793V284Z" fill="#EEEEEC"/>
<path d="M200 276L194.5 282L189 276H200Z" fill="#EEEEEC"/>
<rect x="97.5" y="263.5" width="114" height="31" rx="3.5" stroke="url(#paint3_linear)"/>
<path d="M102 301.5H144.5V332.5H102C100.067 332.5 98.5 330.933 98.5 329V305C98.5 303.067 100.067 301.5 102 301.5Z" fill="url(#paint4_linear)"/>
<path d="M118.988 312V314H124.988C125.416 314 125.988 314.614 125.988 315V316H120.988C120.068 316 119.252 316.38 118.738 316.965C118.248 317.532 117.986 318.261 118.001 319.01C118.007 319.73 118.247 320.459 118.759 321.037C119.272 321.616 120.079 322 120.988 322H127.988V315C127.988 314.204 127.672 313.441 127.109 312.879C126.546 312.316 125.783 312 124.988 312H118.988ZM120.988 318H125.988V320H120.988C120.59 320 120.409 319.884 120.258 319.713C120.091 319.509 120 319.253 120.001 318.99C119.999 318.71 120.094 318.45 120.24 318.285C120.385 318.12 120.565 318 120.988 318Z" fill="#EEEEEC"/>
<path d="M118 312V314H123C123.428 314 124 314.614 124 315V316H119C118.08 316 117.264 316.38 116.75 316.965C116.26 317.532 115.998 318.261 116.013 319.01C116.019 319.73 116.259 320.459 116.771 321.037C117.284 321.616 118.091 322 119 322H126V315C126 314.204 125.684 313.441 125.121 312.879C124.559 312.316 123.796 312 123 312H118ZM119 318H124V320H119C118.602 320 118.421 319.884 118.27 319.713C118.103 319.509 118.012 319.253 118.013 318.99C118.011 318.71 118.106 318.45 118.252 318.285C118.397 318.12 118.577 318 119 318Z" fill="#EEEEEC"/>
<path d="M102 301.5H144.5V332.5H102C100.067 332.5 98.5 330.933 98.5 329V305C98.5 303.067 100.067 301.5 102 301.5Z" stroke="url(#paint5_linear)"/>
<rect x="144.5" y="301.5" width="46" height="31" fill="url(#paint6_linear)"/>
<path d="M164.494 312V314H170.494C170.922 314 171.101 314.281 170.976 314.732L170.625 316H165.385C163.546 316 162.254 317.343 161.879 318.74C161.691 319.44 161.705 320.217 162.117 320.895C162.529 321.572 163.369 322 164.277 322H171.037L172.902 315.268C173.337 313.698 172.174 312 170.494 312H164.494ZM165.384 318H170.07L169.515 320H164.277C163.879 320 163.868 319.928 163.824 319.855C163.78 319.783 163.73 319.561 163.81 319.26C163.972 318.657 164.54 318 165.385 318H165.384Z" fill="#EEEEEC"/>
<rect x="144.5" y="301.5" width="46" height="31" stroke="url(#paint7_linear)"/>
<rect x="190.5" y="301.5" width="46" height="31" fill="url(#paint8_linear)"/>
<path d="M210 311V313H216C216.428 313 217 313.614 217 314V315H212C211.08 315 210.264 315.38 209.75 315.965C209.26 316.532 208.998 317.261 209.013 318.01C209.019 318.73 209.259 319.459 209.771 320.037C210.284 320.616 211.091 321 212 321H219V314C219 313.204 218.684 312.441 218.121 311.879C217.559 311.316 216.796 311 216 311H210ZM212 317H217V319H212C211.602 319 211.421 318.884 211.27 318.713C211.103 318.509 211.012 318.253 211.013 317.99C211.011 317.71 211.106 317.45 211.252 317.285C211.397 317.12 211.577 317 212 317Z" fill="#EEEEEC"/>
<path d="M208 322V324H220V322H208Z" fill="#EEEEEC"/>
<rect x="190.5" y="301.5" width="46" height="31" stroke="url(#paint9_linear)"/>
<path d="M236.5 301.5H279C280.933 301.5 282.5 303.067 282.5 305V329C282.5 330.933 280.933 332.5 279 332.5H236.5V301.5Z" fill="url(#paint10_linear)"/>
<path d="M256 312V314H262C262.428 314 263 314.614 263 315H265C265 314.204 264.684 313.441 264.121 312.879C263.559 312.316 262.796 312 262 312H256ZM255 319C255.006 319.72 255.269 320.453 255.781 321.031C256.293 321.61 257.091 322 258 322H265V319H263V320H258C257.602 320 257.433 319.89 257.281 319.719C257.107 319.519 257.008 319.265 257 319H255Z" fill="#EEEEEC"/>
<path d="M253 316V318H267V316H253Z" fill="#EEEEEC"/>
<path d="M236.5 301.5H279C280.933 301.5 282.5 303.067 282.5 305V329C282.5 330.933 280.933 332.5 279 332.5H236.5V301.5Z" stroke="url(#paint11_linear)"/>
<path d="M97.972 351H99.544V347.532H103.144V346.176H99.544V344.028H103.54V342.672H97.972V351ZM107.357 351.12C109.193 351.12 110.429 349.86 110.429 347.988C110.429 346.2 109.289 345.048 107.537 345.048C105.689 345.048 104.453 346.296 104.453 348.18C104.453 349.956 105.581 351.12 107.357 351.12ZM107.489 349.824C106.589 349.824 106.001 349.128 106.001 348.048C106.001 346.992 106.541 346.344 107.393 346.344C108.293 346.344 108.881 347.052 108.881 348.144C108.881 349.176 108.341 349.824 107.489 349.824ZM111.798 351H113.334V347.208C113.682 346.788 114.174 346.548 114.714 346.548C114.954 346.548 115.242 346.596 115.458 346.68L115.806 345.276C115.566 345.168 115.254 345.108 114.942 345.108C114.246 345.108 113.61 345.444 113.166 346.032L113.022 345.168H111.798V351ZM124.351 351H125.887V347.4C125.887 345.96 125.071 345.072 123.763 345.072C122.983 345.072 122.251 345.384 121.711 345.984C121.363 345.396 120.751 345.072 119.959 345.072C119.263 345.072 118.603 345.324 118.087 345.792L117.823 345.168H116.719V351H118.255V346.812C118.591 346.548 118.987 346.404 119.419 346.404C120.163 346.404 120.535 346.824 120.535 347.616V351H122.071V347.4C122.071 347.208 122.059 347.028 122.023 346.848C122.371 346.56 122.791 346.404 123.235 346.404C123.979 346.404 124.351 346.824 124.351 347.616V351ZM131.161 351H132.265V347.496C132.265 345.912 131.365 345.048 129.637 345.048C128.809 345.048 127.909 345.252 127.225 345.612L127.585 346.68C128.197 346.44 128.773 346.32 129.313 346.32C130.249 346.32 130.753 346.68 130.753 347.376V347.532C128.233 347.568 127.117 348.144 127.117 349.38C127.117 350.436 127.897 351.12 129.133 351.12C129.877 351.12 130.501 350.88 130.945 350.424L131.161 351ZM130.753 349.5C130.465 349.764 130.081 349.92 129.637 349.92C129.049 349.92 128.653 349.62 128.653 349.176C128.653 348.648 129.253 348.408 130.753 348.384V349.5ZM136.192 351.084C136.588 351.084 137.02 351 137.392 350.88L137.08 349.788C136.912 349.86 136.708 349.896 136.528 349.896C135.976 349.896 135.628 349.572 135.628 349.068V346.392H137.092V345.168H135.628V343.476H134.116V345.168H133.3V346.392H134.116V349.164C134.116 350.34 134.896 351.084 136.192 351.084ZM140.785 351.084C141.181 351.084 141.613 351 141.985 350.88L141.673 349.788C141.505 349.86 141.301 349.896 141.121 349.896C140.569 349.896 140.221 349.572 140.221 349.068V346.392H141.685V345.168H140.221V343.476H138.709V345.168H137.893V346.392H138.709V349.164C138.709 350.34 139.489 351.084 140.785 351.084ZM143.063 351H144.599V345.168H143.063V351ZM143.843 344.088C144.407 344.088 144.779 343.728 144.779 343.152C144.779 342.576 144.407 342.204 143.843 342.204C143.267 342.204 142.895 342.576 142.895 343.152C142.895 343.728 143.267 344.088 143.843 344.088ZM150.185 351H151.709V347.4C151.709 345.96 150.893 345.072 149.585 345.072C148.877 345.072 148.217 345.324 147.701 345.804L147.437 345.168H146.333V351H147.869V346.824C148.217 346.548 148.613 346.404 149.057 346.404C149.801 346.404 150.185 346.824 150.185 347.616V351ZM155.525 353.76C157.373 353.76 158.609 352.62 158.609 350.904V345.168H157.517L157.325 345.684C156.929 345.264 156.377 345.048 155.693 345.048C154.073 345.048 152.969 346.272 152.969 348.132C152.969 349.944 154.013 351.12 155.501 351.12C156.137 351.12 156.689 350.892 157.109 350.484V350.976C157.109 351.972 156.545 352.5 155.513 352.5C155.009 352.5 154.409 352.38 153.893 352.164L153.593 353.304C154.229 353.604 154.865 353.76 155.525 353.76ZM157.109 346.944V349.308C156.845 349.632 156.449 349.824 155.969 349.824C155.081 349.824 154.517 349.128 154.517 348.036C154.517 346.992 155.045 346.344 155.909 346.344C156.401 346.344 156.833 346.56 157.109 346.944Z" fill="#EEEEEC"/>
<path d="M102 359.5H144.5V390.5H102C100.067 390.5 98.5 388.933 98.5 387V363C98.5 361.067 100.067 359.5 102 359.5Z" fill="url(#paint12_linear)"/>
<path d="M125 370H117V372H125V370Z" fill="#EEEEEC"/>
<path d="M127 374H117V376H127V374Z" fill="#EEEEEC"/>
<path d="M121 378H117V380H121V378Z" fill="#EEEEEC"/>
<path d="M102 359.5H144.5V390.5H102C100.067 390.5 98.5 388.933 98.5 387V363C98.5 361.067 100.067 359.5 102 359.5Z" stroke="url(#paint13_linear)"/>
<path d="M144.5 359.5H190.5V390.5H144.5V359.5Z" fill="url(#paint14_linear)"/>
<path d="M172 370H164V372H172V370Z" fill="#EEEEEC"/>
<path d="M173 374H163V376H173V374Z" fill="#EEEEEC"/>
<path d="M170 378H166V380H170V378Z" fill="#EEEEEC"/>
<path d="M144.5 359.5H190.5V390.5H144.5V359.5Z" stroke="url(#paint15_linear)"/>
<path d="M190.5 359.5H236.5V390.5H190.5V359.5Z" fill="url(#paint16_linear)"/>
<path d="M219 370H211V372H219V370Z" fill="#EEEEEC"/>
<path d="M219 374H209V376H219V374Z" fill="#EEEEEC"/>
<path d="M219 378H215V380H219V378Z" fill="#EEEEEC"/>
<path d="M190.5 359.5H236.5V390.5H190.5V359.5Z" stroke="url(#paint17_linear)"/>
<path d="M236.5 359.5H279C280.933 359.5 282.5 361.067 282.5 363V387C282.5 388.933 280.933 390.5 279 390.5H236.5V359.5Z" fill="url(#paint18_linear)"/>
<path d="M265 370H255V372H265V370Z" fill="#EEEEEC"/>
<path d="M265 374H255V376H265V374Z" fill="#EEEEEC"/>
<path d="M265 378H255V380H265V378Z" fill="#EEEEEC"/>
<path d="M236.5 359.5H279C280.933 359.5 282.5 361.067 282.5 363V387C282.5 388.933 280.933 390.5 279 390.5H236.5V359.5Z" stroke="url(#paint19_linear)"/>
<path d="M220.5 397.5H279C280.933 397.5 282.5 399.067 282.5 401V425C282.5 426.933 280.933 428.5 279 428.5H220.5V397.5Z" fill="url(#paint20_linear)"/>
<path d="M246.199 405C244.944 405 244 406.1 244 407.318V409H246V407.318C246 407.075 246.126 407 246.199 407H248V405H246.199ZM250 405V407H254V405H250ZM256 405V407H257.801C257.874 407 258 407.075 258 407.318V409H260V407.318C260 406.1 259.056 405 257.801 405H256ZM244 411V415H246V411H244ZM258 411V415H260V411H258ZM244 417V418.682C244 419.9 244.944 421 246.199 421H248V419H246.199C246.126 419 246 418.925 246 418.682V417H244ZM258 417V418.682C258 418.925 257.874 419 257.801 419H256V421H257.801C259.056 421 260 419.9 260 418.682V417H258ZM250 419V421H254V419H250Z" fill="#EEEEEC"/>
<path d="M220.5 397.5H279C280.933 397.5 282.5 399.067 282.5 401V425C282.5 426.933 280.933 428.5 279 428.5H220.5V397.5Z" stroke="url(#paint21_linear)"/>
<path d="M159.5 397.5H221.5V428.5H159.5V397.5Z" fill="url(#paint22_linear)"/>
<path d="M194 408H186V410H194V408Z" fill="#EEEEEC"/>
<path d="M196 412H186V414H196V412Z" fill="#EEEEEC"/>
<path d="M190 416H186V418H190V416Z" fill="#EEEEEC"/>
<path d="M159.5 397.5H221.5V428.5H159.5V397.5Z" stroke="url(#paint23_linear)"/>
<path d="M98.5 401C98.5 399.067 100.067 397.5 102 397.5H160.5V428.5H102C100.067 428.5 98.5 426.933 98.5 425V401Z" fill="#1E1E1E"/>
<path d="M125 412V414H135V412H125Z" fill="#EEEEEC"/>
<path d="M132 409V410C132 410.257 132.13 410.528 132.313 410.719L134.593 413L132.313 415.281C132.13 415.471 132 415.743 132 416V417H133C133.31 417 133.552 416.91 133.75 416.719L137.406 413L133.75 409.281C133.552 409.091 133.31 409 133 409H132ZM128 409V410C128 410.257 127.87 410.528 127.688 410.719L125.406 413L127.688 415.281C127.87 415.471 128 415.743 128 416V417H127C126.69 417 126.448 416.91 126.25 416.719L122.594 413L126.25 409.281C126.448 409.091 126.69 409 127 409H128Z" fill="#EEEEEC"/>
<path d="M98.5 401C98.5 399.067 100.067 397.5 102 397.5H160.5V428.5H102C100.067 428.5 98.5 426.933 98.5 425V401Z" stroke="url(#paint24_linear)"/>
<path d="M97.972 447H103.108V445.632H99.52V438.672H97.972V447ZM104.262 447H105.798V441.168H104.262V447ZM105.042 440.088C105.606 440.088 105.978 439.728 105.978 439.152C105.978 438.576 105.606 438.204 105.042 438.204C104.466 438.204 104.094 438.576 104.094 439.152C104.094 439.728 104.466 440.088 105.042 440.088ZM111.384 447H112.908V443.4C112.908 441.96 112.092 441.072 110.784 441.072C110.076 441.072 109.416 441.324 108.9 441.804L108.636 441.168H107.532V447H109.068V442.824C109.416 442.548 109.812 442.404 110.256 442.404C111 442.404 111.384 442.824 111.384 443.616V447ZM117.384 447.12C118.068 447.12 118.812 446.976 119.448 446.712L119.1 445.656C118.632 445.848 118.116 445.956 117.624 445.956C116.58 445.956 115.932 445.464 115.752 444.504H119.532C119.568 444.264 119.604 443.904 119.604 443.64C119.604 442.044 118.632 441.048 117.072 441.048C115.332 441.048 114.168 442.284 114.168 444.096C114.168 445.968 115.392 447.12 117.384 447.12ZM115.716 443.568C115.8 442.692 116.232 442.224 116.964 442.224C117.72 442.224 118.164 442.716 118.164 443.568H115.716ZM125.881 447.12C127.909 447.12 129.133 446.112 129.133 444.552C129.133 441.54 124.753 442.584 124.753 440.904C124.753 440.268 125.329 439.908 126.373 439.908C127.057 439.908 127.813 440.04 128.413 440.268L128.857 439.044C128.149 438.732 127.285 438.552 126.457 438.552C124.477 438.552 123.145 439.572 123.145 441.144C123.145 443.988 127.513 443.052 127.513 444.744C127.513 445.356 126.973 445.728 125.953 445.728C125.197 445.728 124.273 445.56 123.445 445.212L123.001 446.46C123.889 446.868 124.921 447.12 125.881 447.12ZM133.3 447.12C134.872 447.12 136 445.824 136 443.988C136 442.248 134.956 441.048 133.456 441.048C132.748 441.048 132.124 441.324 131.68 441.816L131.404 441.168H130.372V449.604H131.86V446.616C132.232 446.94 132.736 447.12 133.3 447.12ZM131.86 445.164V442.836C132.16 442.524 132.568 442.344 133.024 442.344C133.9 442.344 134.452 443.016 134.452 444.108C134.452 445.164 133.948 445.824 133.096 445.824C132.58 445.824 132.124 445.572 131.86 445.164ZM141.028 447H142.132V443.496C142.132 441.912 141.232 441.048 139.504 441.048C138.676 441.048 137.776 441.252 137.092 441.612L137.452 442.68C138.064 442.44 138.64 442.32 139.18 442.32C140.116 442.32 140.62 442.68 140.62 443.376V443.532C138.1 443.568 136.984 444.144 136.984 445.38C136.984 446.436 137.764 447.12 139 447.12C139.744 447.12 140.368 446.88 140.812 446.424L141.028 447ZM140.62 445.5C140.332 445.764 139.948 445.92 139.504 445.92C138.916 445.92 138.52 445.62 138.52 445.176C138.52 444.648 139.12 444.408 140.62 444.384V445.5ZM146.311 447.12C147.019 447.12 147.679 446.964 148.231 446.664L147.895 445.608C147.475 445.788 147.031 445.884 146.647 445.884C145.567 445.884 144.943 445.212 144.943 444.048C144.943 442.944 145.507 442.344 146.539 442.344C146.971 442.344 147.463 442.44 147.883 442.608L148.207 441.396C147.703 441.168 147.091 441.048 146.491 441.048C144.607 441.048 143.383 442.296 143.383 444.216C143.383 446.04 144.475 447.12 146.311 447.12ZM149.438 447H150.974V441.168H149.438V447ZM150.218 440.088C150.782 440.088 151.154 439.728 151.154 439.152C151.154 438.576 150.782 438.204 150.218 438.204C149.642 438.204 149.27 438.576 149.27 439.152C149.27 439.728 149.642 440.088 150.218 440.088ZM156.56 447H158.084V443.4C158.084 441.96 157.268 441.072 155.96 441.072C155.252 441.072 154.592 441.324 154.076 441.804L153.812 441.168H152.708V447H154.244V442.824C154.592 442.548 154.988 442.404 155.432 442.404C156.176 442.404 156.56 442.824 156.56 443.616V447ZM161.9 449.76C163.748 449.76 164.984 448.62 164.984 446.904V441.168H163.892L163.7 441.684C163.304 441.264 162.752 441.048 162.068 441.048C160.448 441.048 159.344 442.272 159.344 444.132C159.344 445.944 160.388 447.12 161.876 447.12C162.512 447.12 163.064 446.892 163.484 446.484V446.976C163.484 447.972 162.92 448.5 161.888 448.5C161.384 448.5 160.784 448.38 160.268 448.164L159.968 449.304C160.604 449.604 161.24 449.76 161.9 449.76ZM163.484 442.944V445.308C163.22 445.632 162.824 445.824 162.344 445.824C161.456 445.824 160.892 445.128 160.892 444.036C160.892 442.992 161.42 442.344 162.284 442.344C162.776 442.344 163.208 442.56 163.484 442.944Z" fill="#EEEEEC"/>
<path d="M191.972 447H197.108V445.632H193.52V438.672H191.972V447ZM201.118 447.12C201.802 447.12 202.546 446.976 203.182 446.712L202.834 445.656C202.366 445.848 201.85 445.956 201.358 445.956C200.314 445.956 199.666 445.464 199.486 444.504H203.266C203.302 444.264 203.338 443.904 203.338 443.64C203.338 442.044 202.366 441.048 200.806 441.048C199.066 441.048 197.902 442.284 197.902 444.096C197.902 445.968 199.126 447.12 201.118 447.12ZM199.45 443.568C199.534 442.692 199.966 442.224 200.698 442.224C201.454 442.224 201.898 442.716 201.898 443.568H199.45ZM207.024 447.084C207.42 447.084 207.852 447 208.224 446.88L207.912 445.788C207.744 445.86 207.54 445.896 207.36 445.896C206.808 445.896 206.46 445.572 206.46 445.068V442.392H207.924V441.168H206.46V439.476H204.948V441.168H204.132V442.392H204.948V445.164C204.948 446.34 205.728 447.084 207.024 447.084ZM211.618 447.084C212.014 447.084 212.446 447 212.818 446.88L212.506 445.788C212.338 445.86 212.134 445.896 211.954 445.896C211.402 445.896 211.054 445.572 211.054 445.068V442.392H212.518V441.168H211.054V439.476H209.542V441.168H208.726V442.392H209.542V445.164C209.542 446.34 210.322 447.084 211.618 447.084ZM216.751 447.12C217.435 447.12 218.179 446.976 218.815 446.712L218.467 445.656C217.999 445.848 217.483 445.956 216.991 445.956C215.947 445.956 215.299 445.464 215.119 444.504H218.899C218.935 444.264 218.971 443.904 218.971 443.64C218.971 442.044 217.999 441.048 216.439 441.048C214.699 441.048 213.535 442.284 213.535 444.096C213.535 445.968 214.759 447.12 216.751 447.12ZM215.083 443.568C215.167 442.692 215.599 442.224 216.331 442.224C217.087 442.224 217.531 442.716 217.531 443.568H215.083ZM220.341 447H221.877V443.208C222.225 442.788 222.717 442.548 223.257 442.548C223.497 442.548 223.785 442.596 224.001 442.68L224.349 441.276C224.109 441.168 223.797 441.108 223.485 441.108C222.789 441.108 222.153 441.444 221.709 442.032L221.565 441.168H220.341V447ZM230.17 447.12C232.198 447.12 233.422 446.112 233.422 444.552C233.422 441.54 229.042 442.584 229.042 440.904C229.042 440.268 229.618 439.908 230.662 439.908C231.346 439.908 232.102 440.04 232.702 440.268L233.146 439.044C232.438 438.732 231.574 438.552 230.746 438.552C228.766 438.552 227.434 439.572 227.434 441.144C227.434 443.988 231.802 443.052 231.802 444.744C231.802 445.356 231.262 445.728 230.242 445.728C229.486 445.728 228.562 445.56 227.734 445.212L227.29 446.46C228.178 446.868 229.21 447.12 230.17 447.12ZM237.589 447.12C239.161 447.12 240.289 445.824 240.289 443.988C240.289 442.248 239.245 441.048 237.745 441.048C237.037 441.048 236.413 441.324 235.969 441.816L235.693 441.168H234.661V449.604H236.149V446.616C236.521 446.94 237.025 447.12 237.589 447.12ZM236.149 445.164V442.836C236.449 442.524 236.857 442.344 237.313 442.344C238.189 442.344 238.741 443.016 238.741 444.108C238.741 445.164 238.237 445.824 237.385 445.824C236.869 445.824 236.413 445.572 236.149 445.164ZM245.317 447H246.421V443.496C246.421 441.912 245.521 441.048 243.793 441.048C242.965 441.048 242.065 441.252 241.381 441.612L241.741 442.68C242.353 442.44 242.929 442.32 243.469 442.32C244.405 442.32 244.909 442.68 244.909 443.376V443.532C242.389 443.568 241.273 444.144 241.273 445.38C241.273 446.436 242.053 447.12 243.289 447.12C244.033 447.12 244.657 446.88 245.101 446.424L245.317 447ZM244.909 445.5C244.621 445.764 244.237 445.92 243.793 445.92C243.205 445.92 242.809 445.62 242.809 445.176C242.809 444.648 243.409 444.408 244.909 444.384V445.5ZM250.6 447.12C251.308 447.12 251.968 446.964 252.52 446.664L252.184 445.608C251.764 445.788 251.32 445.884 250.936 445.884C249.856 445.884 249.232 445.212 249.232 444.048C249.232 442.944 249.796 442.344 250.828 442.344C251.26 442.344 251.752 442.44 252.172 442.608L252.496 441.396C251.992 441.168 251.38 441.048 250.78 441.048C248.896 441.048 247.672 442.296 247.672 444.216C247.672 446.04 248.764 447.12 250.6 447.12ZM253.727 447H255.263V441.168H253.727V447ZM254.507 440.088C255.071 440.088 255.443 439.728 255.443 439.152C255.443 438.576 255.071 438.204 254.507 438.204C253.931 438.204 253.559 438.576 253.559 439.152C253.559 439.728 253.931 440.088 254.507 440.088ZM260.849 447H262.373V443.4C262.373 441.96 261.557 441.072 260.249 441.072C259.541 441.072 258.881 441.324 258.365 441.804L258.101 441.168H256.997V447H258.533V442.824C258.881 442.548 259.277 442.404 259.721 442.404C260.465 442.404 260.849 442.824 260.849 443.616V447ZM266.189 449.76C268.037 449.76 269.273 448.62 269.273 446.904V441.168H268.181L267.989 441.684C267.593 441.264 267.041 441.048 266.357 441.048C264.737 441.048 263.633 442.272 263.633 444.132C263.633 445.944 264.677 447.12 266.165 447.12C266.801 447.12 267.353 446.892 267.773 446.484V446.976C267.773 447.972 267.209 448.5 266.177 448.5C265.673 448.5 265.073 448.38 264.557 448.164L264.257 449.304C264.893 449.604 265.529 449.76 266.189 449.76ZM267.773 442.944V445.308C267.509 445.632 267.113 445.824 266.633 445.824C265.745 445.824 265.181 445.128 265.181 444.036C265.181 442.992 265.709 442.344 266.573 442.344C267.065 442.344 267.497 442.56 267.773 442.944Z" fill="#EEEEEC"/>
<path d="M189.497 455V454.5H188.997H101C98.5147 454.5 96.5 456.515 96.5 459V483C96.5 485.485 98.5147 487.5 101 487.5H188.997H189.497V487V455Z" fill="#2D2D2D" stroke="#1B1B1B"/>
<path d="M141.974 476.12C143.834 476.12 144.986 474.488 144.986 471.776C144.986 469.16 143.87 467.552 142.058 467.552C140.174 467.552 139.01 469.196 139.01 471.896C139.01 474.524 140.138 476.12 141.974 476.12ZM142.046 475.268C140.798 475.268 140.018 473.96 140.018 471.776C140.018 469.676 140.774 468.404 141.986 468.404C143.21 468.404 143.978 469.724 143.978 471.896C143.978 473.996 143.246 475.268 142.046 475.268Z" fill="#EEEEEC"/>
<path d="M190 454.5H189.5V455V487V487.5H190H280C282.485 487.5 284.5 485.485 284.5 483V459C284.5 456.515 282.485 454.5 280 454.5H190Z" fill="#2D2D2D" stroke="#1B1B1B"/>
<path d="M235.971 476.12C237.831 476.12 238.983 474.488 238.983 471.776C238.983 469.16 237.867 467.552 236.055 467.552C234.171 467.552 233.007 469.196 233.007 471.896C233.007 474.524 234.135 476.12 235.971 476.12ZM236.043 475.268C234.795 475.268 234.015 473.96 234.015 471.776C234.015 469.676 234.771 468.404 235.983 468.404C237.207 468.404 237.975 469.724 237.975 471.896C237.975 473.996 237.243 475.268 236.043 475.268Z" fill="#EEEEEC"/>
<path d="M97.972 505H99.544V501.532H103.144V500.176H99.544V498.028H103.54V496.672H97.972V505ZM104.813 505H106.349V499.168H104.813V505ZM105.593 498.088C106.157 498.088 106.529 497.728 106.529 497.152C106.529 496.576 106.157 496.204 105.593 496.204C105.017 496.204 104.645 496.576 104.645 497.152C104.645 497.728 105.017 498.088 105.593 498.088ZM109.715 505.084C110.099 505.084 110.519 505.012 110.831 504.868L110.519 503.848C110.387 503.896 110.255 503.92 110.147 503.92C109.787 503.92 109.595 503.68 109.595 503.272V496.132H108.083V503.464C108.083 504.472 108.695 505.084 109.715 505.084ZM113.371 505.084C113.755 505.084 114.175 505.012 114.487 504.868L114.175 503.848C114.043 503.896 113.911 503.92 113.803 503.92C113.443 503.92 113.251 503.68 113.251 503.272V496.132H111.739V503.464C111.739 504.472 112.351 505.084 113.371 505.084Z" fill="#EEEEEC"/>
<rect x="178.5" y="512.5" width="105" height="33" rx="4.5" fill="white" stroke="#1B1B1B"/>
<path d="M249 512.5H248.5V513V545V545.5H249H279C281.485 545.5 283.5 543.485 283.5 541V517C283.5 514.515 281.485 512.5 279 512.5H249Z" fill="url(#paint25_linear)" stroke="url(#paint26_linear)"/>
<g filter="url(#filter0_d)">
<path d="M270.947 521.994C270.428 522.009 269.934 522.226 269.572 522.599L267.572 524.599C267.472 524.696 267.382 524.802 267.305 524.917L266.271 523.884C265.986 523.599 265.538 523.462 265.088 523.911L264.279 524.72L265.353 525.794L260.974 530.307C260.624 530.657 260.486 531.013 260.486 531.445V533.124L258.627 534.958L259.967 536.423L261.92 534.513H263.515C263.986 534.566 264.377 534.332 264.688 534.021L269.154 529.595L270.279 530.72L271.111 529.888C271.518 529.481 271.4 529.013 271.06 528.673L270.082 527.695C270.197 527.617 270.304 527.527 270.4 527.427L272.4 525.427C273.708 524.155 272.771 521.94 270.947 521.994ZM266.06 526.501L268.445 528.886L266.301 531.013H261.683L266.06 526.501Z" fill="#EEEEEC"/>
</g>
<rect x="97.5" y="512.5" width="74" height="33" rx="4.5" fill="#2D2D2D" stroke="#1B1B1B"/>
<path d="M115.101 534H115.929V531.804H117.489V531.024H115.929L115.941 528.552H117.489V527.772H115.941V525.672H115.113V527.772H112.881V525.672H112.053V527.772H110.469V528.552H112.053L112.041 531.024H110.469V531.804H112.041V534H112.869V531.804H115.101V534ZM112.869 531.024L112.881 528.552H115.113L115.101 531.024H112.869ZM119.004 534H124.236V533.136H120V530.124H123.912V529.26H120V526.536H124.236V525.672H119.004V534ZM126.012 534H131.244V533.136H127.008V530.124H130.92V529.26H127.008V526.536H131.244V525.672H126.012V534ZM133.344 534H134.364L137.82 526.152V525.672H132.24V526.536H136.656L133.344 534ZM141.81 534.12C143.418 534.12 144.558 532.992 144.558 531.372C144.558 529.872 143.574 528.876 142.134 528.876C141.114 528.876 140.262 529.368 139.83 530.184C139.83 530.112 139.83 530.028 139.83 529.944C139.83 527.604 140.682 526.428 142.446 526.428C143.022 526.428 143.634 526.56 144.162 526.836L144.45 526.056C143.79 525.708 143.166 525.552 142.494 525.552C140.19 525.552 138.858 527.244 138.858 530.076C138.858 532.632 139.938 534.12 141.81 534.12ZM139.902 531.012C140.226 530.184 140.946 529.704 141.858 529.704C142.938 529.704 143.61 530.4 143.61 531.492C143.61 532.548 142.974 533.256 141.93 533.256C140.814 533.256 140.118 532.488 139.902 531.012ZM146.598 534H147.618L151.074 526.152V525.672H145.494V526.536H149.91L146.598 534ZM151.512 534H152.556L153.444 531.528H156.912L157.74 534H158.856L155.928 525.672H154.632L151.512 534ZM153.744 530.664L155.22 526.524L156.612 530.664H153.744Z" fill="#EEEEEC"/>
<rect x="88.5" y="37.5" width="204" height="675" stroke="#0D0D0D"/>
<path d="M52.5 37.5H88.5V712.5H59C55.4102 712.5 52.5 709.59 52.5 706V37.5Z" fill="#3D3D3D"/>
<path d="M66.498 120C65.9453 120 65.5 120.029 65.5 120.029V122.012L63.5 122.014V123.002C63.5 123.555 63.9453 124 64.498 124H65.5V130.998V131.002C65.5 131.555 65.9453 132 66.498 132L73.5 131.992V133.002C73.5 133.555 73.9453 134 74.498 134H74.502C75.0547 134 75.5 133.971 75.5 133.971V131.988L77.5 131.986V130.998C77.5 130.445 77.0547 130 76.502 130H75.5V123.002V122.998C75.5 122.445 75.0547 122 74.502 122H74.498L67.5 122.008V120.998C67.5 120.445 67.0547 120 66.502 120H66.498ZM67.5 124H73.5V130H67.5V124Z" fill="#EEEEEC"/>
<path d="M78.5 103L82.5 99V103H78.5Z" fill="#EEEEEC"/>
<path d="M66.0303 97H62.9697C62.7103 97 62.5 97.2301 62.5 97.5139V98.4861C62.5 98.7699 62.7103 99 62.9697 99H66.0303C66.2897 99 66.5 98.7699 66.5 98.4861V97.5139C66.5 97.2301 66.2897 97 66.0303 97Z" fill="#EEEEEC"/>
<path d="M69.3333 83C68.8717 83 68.5 83.3823 68.5 83.8571V87.2857V88.1429C68.5 88.6177 68.8717 89 69.3333 89H75.1667H77.6667C78.1283 89 78.5 88.6177 78.5 88.1429V84.7143V83.8571C78.5 83.3823 78.1283 83 77.6667 83H71.8333H69.3333Z" fill="#EEEEEC"/>
<path d="M68.5 91L70.5 93L67.5 96L68.5 97L69.5 96L71.5 94L73.5 96V91H70.5H68.5Z" fill="#EEEEEC"/>
<path d="M65.472 48.069L67.889 61.279L71.127 58.884L73.183 61.53C74.213 62.965 76.331 61.319 75.195 59.967L73.178 57.375L76.161 55.198L65.472 48.069Z" fill="#EEEEEC"/>
<line x1="53" y1="144.5" x2="88" y2="144.5" stroke="#282828"/>
<path d="M72.1559 160.638L69.3939 162.071L68.9509 165.275L66.8009 162.956L63.7651 163.504L65.1984 160.638L63.7651 157.771L66.8009 158.319L68.9509 156L69.3939 159.205L72.1559 160.638Z" fill="#EEEEEC"/>
<path d="M71.4615 162.962C71.2626 162.962 71.0682 163.021 70.9032 163.132C70.7381 163.243 70.61 163.401 70.5352 163.585C70.4603 163.77 70.4421 163.972 70.4829 164.167C70.5237 164.362 70.6217 164.54 70.7642 164.678L76.7486 170.663C76.8408 170.759 76.9511 170.835 77.0733 170.888C77.1954 170.941 77.3268 170.969 77.4599 170.97C77.5929 170.972 77.7249 170.946 77.8481 170.896C77.9713 170.846 78.0832 170.772 78.1773 170.677C78.2714 170.583 78.3457 170.471 78.396 170.348C78.4463 170.225 78.4715 170.093 78.4701 169.96C78.4688 169.827 78.4409 169.696 78.3881 169.573C78.3353 169.451 78.2587 169.341 78.1627 169.249L72.1803 163.264C72.0868 163.168 71.9751 163.092 71.8516 163.04C71.7281 162.988 71.5955 162.961 71.4615 162.962Z" fill="#EEEEEC"/>
<path d="M78.5 175L82.5 171V175H78.5Z" fill="#EEEEEC"/>
<path d="M63.5 194H62.5V195H63.5V194Z" fill="#EEEEEC"/>
<path d="M75.5 194H74.5V195H75.5V194Z" fill="#EEEEEC"/>
<path d="M77.5 194H76.5V195H77.5V194Z" fill="#EEEEEC"/>
<path d="M63.5 196H62.5V197H63.5V196Z" fill="#EEEEEC"/>
<path d="M73.5 194H72.5V195H73.5V194Z" fill="#EEEEEC"/>
<path d="M65.5 194H64.5V195H65.5V194Z" fill="#EEEEEC"/>
<path d="M67.5 194H66.5V195H67.5V194Z" fill="#EEEEEC"/>
<path d="M69.5 194H68.5V195H69.5V194Z" fill="#EEEEEC"/>
<path d="M71.5 194H70.5V195H71.5V194Z" fill="#EEEEEC"/>
<path d="M63.5 198H62.5V199H63.5V198Z" fill="#EEEEEC"/>
<path d="M63.5 200H62.5V201H63.5V200Z" fill="#EEEEEC"/>
<path d="M65.5 204H64.5V205H65.5V204Z" fill="#EEEEEC"/>
<path d="M67.5 204H66.5V205H67.5V204Z" fill="#EEEEEC"/>
<path d="M69.5 204H68.5V205H69.5V204Z" fill="#EEEEEC"/>
<path d="M71.5 204H70.5V205H71.5V204Z" fill="#EEEEEC"/>
<path d="M73.5 204H72.5V205H73.5V204Z" fill="#EEEEEC"/>
<path d="M75.5 204H74.5V205H75.5V204Z" fill="#EEEEEC"/>
<path d="M77.5 204H76.5V205H77.5V204Z" fill="#EEEEEC"/>
<path d="M77.5 202H76.5V203H77.5V202Z" fill="#EEEEEC"/>
<path d="M77.5 200H76.5V201H77.5V200Z" fill="#EEEEEC"/>
<path d="M77.5 198H76.5V199H77.5V198Z" fill="#EEEEEC"/>
<path d="M77.5 196H76.5V197H77.5V196Z" fill="#EEEEEC"/>
<path d="M74.5 197H65.5V202H74.5V197Z" fill="#EEEEEC"/>
<path d="M63.5 202H62.5V203H63.5V202Z" fill="#EEEEEC"/>
<path d="M63.5 204H62.5V205H63.5V204Z" fill="#EEEEEC"/>
<path d="M78.5 211L82.5 207V211H78.5Z" fill="#EEEEEC"/>
<line x1="53" y1="216.5" x2="88" y2="216.5" stroke="#282828"/>
<path d="M70 338.156L67.5312 339.969C67.5402 339.957 67.5014 339.951 67.25 340C63.25 340.777 63 341.657 63 343V348C63 348.554 63.446 349 64 349C64.554 349 65 348.554 65 348V341.812L66.2812 343.688L67.3438 345.25L70.125 349.406C70.5086 349.974 71.1986 350.176 71.6562 349.844L76.625 346.25C77.0826 345.918 77.1337 345.193 76.75 344.625L74 340.562V342C74 343.105 73.1046 344 72 344C70.8954 344 70 343.105 70 342V338.156Z" fill="#EEEEEC"/>
<path d="M73 336C73 335.448 72.5529 335 72.0013 335C71.4497 335 71.0026 335.448 71.0026 336V342C71.0026 342.552 71.4497 343 72.0013 343C72.5529 343 73 342.552 73 342V336Z" fill="#EEEEEC"/>
<path d="M72.657 300C72.464 300.012 72.277 300.123 72.091 300.305L63.5 308.737L65.82 311.014H71.443L77.258 305.306C77.3321 305.236 77.3913 305.152 77.4321 305.058C77.4728 304.965 77.4943 304.864 77.4951 304.762C77.4959 304.661 77.4762 304.559 77.437 304.465C77.3978 304.371 77.34 304.286 77.267 304.215L73.269 300.29C73.052 300.077 72.851 299.989 72.657 300ZM68.694 305.628L71.46 308.201C71.674 308.324 71.66 308.778 71.494 308.944L70.5 310H66.25L64.973 308.744L68.037 305.665C68.225 305.477 68.538 305.473 68.693 305.627L68.694 305.628ZM66.5 312H77.5V313H66.5V312Z" fill="#EEEEEC"/>
<path d="M73.5 263.978L71.5 265.978H73C73.1326 265.978 73.2598 266.031 73.3535 266.125L75.3379 268.109C75.4317 268.203 75.4844 268.33 75.4844 268.463V270.052L77.5586 267.978V266.037L75.5 263.978H73.5ZM70.5 266.978L63.5 273.978V277.978H67.5586L74.4844 271.052V268.67L72.793 266.978H70.5Z" fill="#EEEEEC"/>
<path d="M71.5 237.978C71.5 240.187 69.7091 241.988 67.5 241.978H63.5V237.978C63.5 235.769 65.2909 233.978 67.5 233.978C69.7091 233.978 71.5 235.769 71.5 237.978Z" fill="#EEEEEC"/>
<path d="M76.9082 227.027C76.5186 227.038 76.1488 227.201 75.877 227.48L70.0742 233.252C70.9819 233.727 71.72 234.465 72.1953 235.373L77.998 229.601C78.9774 228.647 78.2747 226.988 76.9082 227.027Z" fill="#EEEEEC"/>
<line x1="52.5" y1="360.5" x2="88.5" y2="360.5" stroke="#282828"/>
<rect x="52.5" y="361" width="36" height="36" fill="#EEEEEC"/>
<path d="M68.5 372L63.5 386H66.5C67.9861 382 66.5221 386 68.0082 382H72.9918L74.5 386H77.5L72.5 372H68.5ZM70.5 375L72.5221 380H68.5221L70.5 375Z" fill="#3D3D3D"/>
<path d="M67.9572 408.294C67.5666 407.903 66.9335 407.903 66.543 408.294L64.0432 410.793C63.6527 411.184 63.6527 411.817 64.0432 412.208L66.543 414.707C66.9335 415.098 67.5666 415.098 67.9572 414.707L70.4569 412.208C70.8474 411.817 70.8474 411.184 70.4569 410.793L67.9572 408.294Z" fill="#EEEEEC"/>
<path d="M69.75 422C71.4069 422 72.75 420.657 72.75 419C72.75 417.343 71.4069 416 69.75 416C68.0931 416 66.75 417.343 66.75 419C66.75 420.657 68.0931 422 69.75 422Z" fill="#EEEEEC"/>
<path d="M74.6954 409.002C74.3588 409.02 74.0541 409.207 73.8848 409.498L71.5645 413.498C71.1781 414.164 71.6578 414.999 72.4278 415H77.0723C77.8423 414.999 78.322 414.164 77.9356 413.498L75.6153 409.498C75.4263 409.173 75.0709 408.981 74.6954 409.002Z" fill="#EEEEEC"/>
<path d="M70.25 459V457H75.25V459H70.25Z" fill="#EEEEEC"/>
<path d="M71.25 444V446C71.25 446 69.25 448 69.25 452C70.25 453.646 70.25 454.464 70.25 455V456H75.25V455C75.25 454.486 75.25 453.58 76.25 452C76.25 448 74.25 446 74.25 446V444H73.25V448.969C73.8684 449.174 74.3125 449.75 74.3125 450.438C74.3125 451.296 73.6086 452 72.75 452C71.8914 452 71.1875 451.296 71.1875 450.438C71.1875 449.757 71.641 449.179 72.25 448.969V444H71.25Z" fill="#EEEEEC"/>
<path d="M64.25 444V447H65.25V449.727C64.9202 449.839 64.6335 450.053 64.4303 450.339C64.2271 450.624 64.1176 450.967 64.1172 451.318C64.1176 451.67 64.2271 452.013 64.4303 452.298C64.6335 452.584 64.9202 452.798 65.25 452.91V456H64.25V459H67.25V456H66.25V452.934C66.596 452.832 66.8999 452.619 67.1162 452.328C67.3324 452.037 67.4493 451.682 67.4492 451.318C67.4488 450.955 67.3318 450.601 67.1156 450.31C66.8994 450.019 66.5957 449.807 66.25 449.705V447H67.25V444H64.25Z" fill="#EEEEEC"/>
<g clip-path="url(#clip0)">
<path d="M63 693.006C63.5304 693.006 64.0391 693.217 64.4142 693.592C64.7893 693.967 65 694.476 65 695.006C65 695.536 64.7893 696.045 64.4142 696.42C64.0391 696.795 63.5304 697.006 63 697.006C62.4696 697.006 61.9609 696.795 61.5858 696.42C61.2107 696.045 61 695.536 61 695.006C61 694.476 61.2107 693.967 61.5858 693.592C61.9609 693.217 62.4696 693.006 63 693.006ZM69 693.006C69.5304 693.006 70.0391 693.217 70.4142 693.592C70.7893 693.967 71 694.476 71 695.006C71 695.536 70.7893 696.045 70.4142 696.42C70.0391 696.795 69.5304 697.006 69 697.006C68.4696 697.006 67.9609 696.795 67.5858 696.42C67.2107 696.045 67 695.536 67 695.006C67 694.476 67.2107 693.967 67.5858 693.592C67.9609 693.217 68.4696 693.006 69 693.006ZM75 693.006C75.5304 693.006 76.0391 693.217 76.4142 693.592C76.7893 693.967 77 694.476 77 695.006C77 695.536 76.7893 696.045 76.4142 696.42C76.0391 696.795 75.5304 697.006 75 697.006C74.4696 697.006 73.9609 696.795 73.5858 696.42C73.2107 696.045 73 695.536 73 695.006C73 694.476 73.2107 693.967 73.5858 693.592C73.9609 693.217 74.4696 693.006 75 693.006Z" fill="#EEEEEC"/>
<path d="M66.5 657C65.573 657.004 64.685 657.374 64.0295 658.029C63.374 658.685 63.0039 659.573 63 660.5C63 662.421 64.58 664 66.5 664H67V662H66.5C65.66 662 65 661.34 65 660.5C65 659.66 65.66 659 66.5 659H73V657H66.5Z" fill="#EEEEEC"/>
<path d="M70 654V655C70 655.257 70.13 655.528 70.313 655.719L72.593 658L70.313 660.281C70.13 660.471 70 660.743 70 661V662H71C71.31 662 71.552 661.91 71.75 661.719L75.406 658L71.75 654.281C71.552 654.091 71.31 654 71 654H70Z" fill="#EEEEEC"/>
<path d="M71.5 621C72.427 621.004 73.315 621.374 73.9705 622.029C74.626 622.685 74.9961 623.573 75 624.5C75 626.421 73.42 628 71.5 628H71V626H71.5C72.34 626 73 625.34 73 624.5C73 623.66 72.34 623 71.5 623H65V621H71.5Z" fill="#EEEEEC"/>
<path d="M68 618V619C68 619.257 67.87 619.528 67.687 619.719L65.407 622L67.687 624.281C67.87 624.471 68 624.743 68 625V626H67C66.69 626 66.448 625.91 66.25 625.719L62.594 622L66.25 618.281C66.448 618.091 66.69 618 67 618H68Z" fill="#EEEEEC"/>
<line x1="52" y1="604.5" x2="88" y2="604.5" stroke="#282828"/>
</g>
<path d="M52.5 37.5H88.5V712.5H59C55.4102 712.5 52.5 709.59 52.5 706V37.5Z" stroke="#282828"/>
<defs>
<filter id="filter0_d" x="258" y="520" width="16" height="17" filterUnits="userSpaceOnUse" color-interpolation-filters="sRGB">
<feFlood flood-opacity="0" result="BackgroundImageFix"/>
<feColorMatrix in="SourceAlpha" type="matrix" values="0 0 0 0 0 0 0 0 0 0 0 0 0 0 0 0 0 0 127 0"/>
<feOffset dy="-1"/>
<feColorMatrix type="matrix" values="0 0 0 0 0.027451 0 0 0 0 0.027451 0 0 0 0 0.027451 0 0 0 1 0"/>
<feBlend mode="normal" in2="BackgroundImageFix" result="effect1_dropShadow"/>
<feBlend mode="normal" in="SourceGraphic" in2="effect1_dropShadow" result="shape"/>
</filter>
<linearGradient id="paint0_linear" x1="190.5" y1="225" x2="190.5" y2="257" gradientUnits="userSpaceOnUse">
<stop stop-color="#3A3A3A"/>
<stop offset="1" stop-color="#373737"/>
</linearGradient>
<linearGradient id="paint1_linear" x1="190.5" y1="225" x2="190.5" y2="257" gradientUnits="userSpaceOnUse">
<stop offset="0.953125" stop-color="#141414"/>
<stop offset="1" stop-color="#070707"/>
</linearGradient>
<linearGradient id="paint2_linear" x1="154.5" y1="263" x2="154.5" y2="295" gradientUnits="userSpaceOnUse">
<stop stop-color="#3A3A3A"/>
<stop offset="1" stop-color="#373737"/>
</linearGradient>
<linearGradient id="paint3_linear" x1="154.5" y1="263" x2="154.5" y2="295" gradientUnits="userSpaceOnUse">
<stop offset="0.953125" stop-color="#141414"/>
<stop offset="1" stop-color="#070707"/>
</linearGradient>
<linearGradient id="paint4_linear" x1="121.5" y1="301" x2="121.5" y2="333" gradientUnits="userSpaceOnUse">
<stop stop-color="#3A3A3A"/>
<stop offset="1" stop-color="#373737"/>
</linearGradient>
<linearGradient id="paint5_linear" x1="121.5" y1="301" x2="121.5" y2="333" gradientUnits="userSpaceOnUse">
<stop offset="0.953125" stop-color="#141414"/>
<stop offset="1" stop-color="#070707"/>
</linearGradient>
<linearGradient id="paint6_linear" x1="167.5" y1="301" x2="167.5" y2="333" gradientUnits="userSpaceOnUse">
<stop stop-color="#3A3A3A"/>
<stop offset="1" stop-color="#373737"/>
</linearGradient>
<linearGradient id="paint7_linear" x1="167.5" y1="301" x2="167.5" y2="333" gradientUnits="userSpaceOnUse">
<stop offset="0.953125" stop-color="#141414"/>
<stop offset="1" stop-color="#070707"/>
</linearGradient>
<linearGradient id="paint8_linear" x1="213.5" y1="301" x2="213.5" y2="333" gradientUnits="userSpaceOnUse">
<stop stop-color="#3A3A3A"/>
<stop offset="1" stop-color="#373737"/>
</linearGradient>
<linearGradient id="paint9_linear" x1="213.5" y1="301" x2="213.5" y2="333" gradientUnits="userSpaceOnUse">
<stop offset="0.953125" stop-color="#141414"/>
<stop offset="1" stop-color="#070707"/>
</linearGradient>
<linearGradient id="paint10_linear" x1="259.5" y1="301" x2="259.5" y2="333" gradientUnits="userSpaceOnUse">
<stop stop-color="#3A3A3A"/>
<stop offset="1" stop-color="#373737"/>
</linearGradient>
<linearGradient id="paint11_linear" x1="259.5" y1="301" x2="259.5" y2="333" gradientUnits="userSpaceOnUse">
<stop offset="0.953125" stop-color="#141414"/>
<stop offset="1" stop-color="#070707"/>
</linearGradient>
<linearGradient id="paint12_linear" x1="121.5" y1="359" x2="121.5" y2="391" gradientUnits="userSpaceOnUse">
<stop stop-color="#3A3A3A"/>
<stop offset="1" stop-color="#373737"/>
</linearGradient>
<linearGradient id="paint13_linear" x1="121.5" y1="359" x2="121.5" y2="391" gradientUnits="userSpaceOnUse">
<stop offset="0.953125" stop-color="#141414"/>
<stop offset="1" stop-color="#070707"/>
</linearGradient>
<linearGradient id="paint14_linear" x1="167.5" y1="359" x2="167.5" y2="391" gradientUnits="userSpaceOnUse">
<stop stop-color="#3A3A3A"/>
<stop offset="1" stop-color="#373737"/>
</linearGradient>
<linearGradient id="paint15_linear" x1="167.5" y1="359" x2="167.5" y2="391" gradientUnits="userSpaceOnUse">
<stop offset="0.953125" stop-color="#141414"/>
<stop offset="1" stop-color="#070707"/>
</linearGradient>
<linearGradient id="paint16_linear" x1="213.5" y1="359" x2="213.5" y2="391" gradientUnits="userSpaceOnUse">
<stop stop-color="#3A3A3A"/>
<stop offset="1" stop-color="#373737"/>
</linearGradient>
<linearGradient id="paint17_linear" x1="213.5" y1="359" x2="213.5" y2="391" gradientUnits="userSpaceOnUse">
<stop offset="0.953125" stop-color="#141414"/>
<stop offset="1" stop-color="#070707"/>
</linearGradient>
<linearGradient id="paint18_linear" x1="259.5" y1="359" x2="259.5" y2="391" gradientUnits="userSpaceOnUse">
<stop stop-color="#3A3A3A"/>
<stop offset="1" stop-color="#373737"/>
</linearGradient>
<linearGradient id="paint19_linear" x1="259.5" y1="359" x2="259.5" y2="391" gradientUnits="userSpaceOnUse">
<stop offset="0.953125" stop-color="#141414"/>
<stop offset="1" stop-color="#070707"/>
</linearGradient>
<linearGradient id="paint20_linear" x1="251.5" y1="397" x2="251.5" y2="429" gradientUnits="userSpaceOnUse">
<stop stop-color="#3A3A3A"/>
<stop offset="1" stop-color="#373737"/>
</linearGradient>
<linearGradient id="paint21_linear" x1="251.5" y1="397" x2="251.5" y2="429" gradientUnits="userSpaceOnUse">
<stop offset="0.953125" stop-color="#141414"/>
<stop offset="1" stop-color="#070707"/>
</linearGradient>
<linearGradient id="paint22_linear" x1="190.5" y1="397" x2="190.5" y2="429" gradientUnits="userSpaceOnUse">
<stop stop-color="#3A3A3A"/>
<stop offset="1" stop-color="#373737"/>
</linearGradient>
<linearGradient id="paint23_linear" x1="190.5" y1="397" x2="190.5" y2="429" gradientUnits="userSpaceOnUse">
<stop offset="0.953125" stop-color="#141414"/>
<stop offset="1" stop-color="#070707"/>
</linearGradient>
<linearGradient id="paint24_linear" x1="129.5" y1="397" x2="129.5" y2="429" gradientUnits="userSpaceOnUse">
<stop offset="0.953125" stop-color="#141414"/>
<stop offset="1" stop-color="#070707"/>
</linearGradient>
<linearGradient id="paint25_linear" x1="266" y1="513" x2="266" y2="545" gradientUnits="userSpaceOnUse">
<stop stop-color="#353535"/>
<stop offset="1" stop-color="#323232"/>
</linearGradient>
<linearGradient id="paint26_linear" x1="266" y1="513" x2="266" y2="545" gradientUnits="userSpaceOnUse">
<stop offset="0.953125" stop-color="#141414"/>
<stop offset="1" stop-color="#070707"/>
</linearGradient>
<clipPath id="clip0">
<rect width="37" height="244" fill="white" transform="translate(52 469)"/>
</clipPath>
</defs>
</svg>
